<svg width="24" height="24" viewBox="0 0 24 24" fill="none" xmlns="http://www.w3.org/2000/svg">
<path d="M21.1 8.87518L12.7 17.3002C12.6 17.4002 12.4917 17.4712 12.375 17.5132C12.2584 17.5552 12.1334 17.5758 12 17.5752C11.8667 17.5752 11.7417 17.5545 11.625 17.5132C11.5084 17.4718 11.4 17.4008 11.3 17.3002L2.87502 8.87518C2.64169 8.64185 2.52502 8.35018 2.52502 8.00018C2.52502 7.65018 2.65002 7.35018 2.90002 7.10018C3.15002 6.85018 3.44169 6.72518 3.77502 6.72518C4.10836 6.72518 4.40002 6.85018 4.65002 7.10018L12 14.4502L19.35 7.10018C19.5834 6.86685 19.871 6.75018 20.213 6.75018C20.555 6.75018 20.8507 6.87518 21.1 7.12518C21.35 7.37518 21.475 7.66685 21.475 8.00018C21.475 8.33351 21.35 8.62518 21.1 8.87518Z" fill="#F3931F"/>
</svg>
