<svg width="48" height="59" viewBox="0 0 48 59" fill="none" xmlns="http://www.w3.org/2000/svg">
<mask id="mask0_945_1936" style="mask-type:luminance" maskUnits="userSpaceOnUse" x="10" y="9" width="28" height="41">
<path d="M10.6666 9.49805H37.3662V49.4141H10.6666V9.49805Z" fill="white"/>
</mask>
<g mask="url(#mask0_945_1936)">
<path d="M33.8071 13.4933C31.2011 11.0462 27.4847 9.64241 23.9048 9.52063C20.4555 9.40318 16.9743 10.5923 14.412 12.8794C13.0539 14.0915 12.003 15.6168 11.4004 17.3213C10.7787 19.0801 10.6356 21.0095 10.6722 22.8598C10.7497 26.772 11.768 30.609 13.3067 34.2014C14.3516 36.6413 15.6678 38.9549 16.9541 41.2768C17.8393 42.8745 18.6856 44.4941 19.6393 46.0542C20.3657 47.2424 21.277 49.199 22.8842 49.3534C24.9145 49.5482 25.9446 47.6184 26.8377 46.1921C27.3613 45.3559 27.8849 44.5198 28.4085 43.6833C30.4039 40.497 32.5129 37.3515 34.3236 34.058C36.1111 30.8062 37.3384 27.3121 37.3474 23.5807C37.356 20.0428 36.5006 16.0232 33.8071 13.4933ZM33.8585 30.7124C33.7777 30.9122 33.6946 31.1112 33.6092 31.3101C32.2694 34.4229 30.5252 37.3471 28.6951 40.2018C27.7643 41.6542 26.8081 43.0905 25.8634 44.5341C25.2439 45.4808 24.3974 47.6216 23.1287 47.8611C21.9215 48.0889 21.3606 46.5825 21.05 45.7326C18.6798 39.2462 14.4115 33.5752 13.0615 26.713C12.4925 23.8204 12.2881 20.7067 13.249 17.8737C14.1104 15.3346 16.6097 13.2566 19.0724 12.2492C22.1689 10.9822 25.8592 11.2144 28.9143 12.5605C32.2087 14.0121 34.356 16.9295 35.0916 20.3642C35.8557 23.9315 35.1986 27.3961 33.8585 30.7124Z" fill="#2B9E56"/>
</g>
<path d="M29.7107 22.1918C29.4243 20.7312 28.5111 19.2637 27.3933 18.2697C26.2382 17.2429 24.7577 16.8097 23.219 17.0234C23.0493 17.0469 22.8792 17.0783 22.71 17.1172C20.2461 17.457 18.1278 19.4178 17.4414 21.7787C17.0134 23.2505 17.0371 24.9452 17.8153 26.3027C18.5357 27.5587 19.8345 28.4196 21.2026 28.8694C24.0776 29.8147 27.4239 28.8141 28.9864 26.1957C29.7067 24.9891 29.9801 23.5676 29.7107 22.1918ZM27.9938 24.8746C26.2012 28.8241 18.5206 28.551 18.5519 23.375C18.5864 17.6838 28.2625 16.8604 28.3639 23.0074C28.3755 23.7085 28.2403 24.3317 27.9938 24.8746Z" fill="#2B9E56"/>
<path d="M30.6157 31.5454C30.3837 31.2647 30.0768 30.9251 29.7168 30.8163C29.6229 30.7881 29.5629 30.8907 29.599 30.967C29.7481 31.28 30.0523 31.534 30.2712 31.8033C30.5115 32.099 30.7361 32.4051 30.9867 32.6922C31.0703 32.7878 31.2351 32.686 31.199 32.5706C31.0779 32.185 30.8736 31.8575 30.6157 31.5454Z" fill="#2B9E56"/>
<path d="M30.9269 29.6275C30.8628 29.5324 30.7116 29.6168 30.7702 29.7174C31.1806 30.4219 31.6963 31.0932 32.3718 31.5719C32.4417 31.6215 32.5118 31.5172 32.46 31.4599C31.9193 30.8662 31.3769 30.2947 30.9269 29.6275Z" fill="#2B9E56"/>
<path d="M31.5621 28.6652C31.5301 28.6162 31.4581 28.6588 31.4838 28.71C31.7952 29.3403 32.2366 30.0307 32.8005 30.4732C32.8442 30.5073 32.9257 30.462 32.8859 30.4083C32.4491 29.8197 31.9637 29.2829 31.5621 28.6652Z" fill="#2B9E56"/>
<path d="M32.4475 27.9933C32.3942 27.9508 32.3195 28.0193 32.3704 28.0689C32.663 28.3537 32.8431 28.6842 33.0243 29.0418C33.0535 29.0989 33.1352 29.057 33.1239 29.0003C33.0424 28.5979 32.7664 28.2474 32.4475 27.9933Z" fill="#2B9E56"/>
<path d="M33.0104 27.1147C32.9516 27.051 32.8532 27.1472 32.9143 27.2094C33.1914 27.4916 33.4071 27.8158 33.574 28.1716C33.5953 28.2171 33.6752 28.1845 33.6569 28.1374C33.5095 27.7561 33.2893 27.4161 33.0104 27.1147Z" fill="#2B9E56"/>
</svg>
