<svg width="566" height="359" viewBox="0 0 566 359" fill="none" xmlns="http://www.w3.org/2000/svg">
<path d="M565.101 61.0464C558.733 73.7011 553.781 87.3682 545.594 98.7069C443.004 241.857 307.263 333.984 131.597 358.483C109.462 361.622 83.1832 335.502 60.4417 314.546C255.715 277.797 417.736 187.391 565 61.0464H565.101Z" fill="#EAA760"/>
<path d="M563.686 0C560.755 5.36561 558.936 12.0473 554.792 16.0968C427.641 138.088 282.096 223.331 103.499 242.465C95.11 243.376 86.7209 243.68 78.3318 244.894C15.5653 254.006 13.9481 252.892 0 185.367C215.185 208.449 395.803 130.597 563.686 0Z" fill="#EAA760"/>
</svg>
