<svg width="234" height="260" viewBox="0 0 234 260" fill="none" xmlns="http://www.w3.org/2000/svg">
<path fill-rule="evenodd" clip-rule="evenodd" d="M37.3321 59.6934C35.9757 59.5479 35.1045 59.8803 35.2603 61.2333C36.6088 61.3788 37.4822 61.0464 37.3321 59.6934Z" fill="#F3931F"/>
<path fill-rule="evenodd" clip-rule="evenodd" d="M69.4438 60.207C68.3108 60.7118 69.911 62.7777 70.9966 62.7743C70.684 61.7056 69.9076 61.1147 69.4438 60.207Z" fill="#F3931F"/>
<path fill-rule="evenodd" clip-rule="evenodd" d="M52.3521 61.747C51.3117 61.5725 50.7316 61.8522 50.7982 62.7744C51.8341 62.949 52.4164 62.6692 52.3521 61.747Z" fill="#F3931F"/>
<path fill-rule="evenodd" clip-rule="evenodd" d="M78.7572 65.3428C77.0882 64.8963 78.6985 68.8311 79.7932 68.9375C80.1058 67.0942 79.1996 66.4519 78.7572 65.3428Z" fill="#F3931F"/>
<path fill-rule="evenodd" clip-rule="evenodd" d="M75.6495 78.1815C75.9429 79.774 75.5084 82.0873 77.2034 82.2899C77.1063 80.5093 77.3975 78.3427 75.6495 78.1815Z" fill="#F3931F"/>
<path fill-rule="evenodd" clip-rule="evenodd" d="M184.942 83.3173C187.035 81.511 186.164 84.9691 184.942 83.3173V83.3173Z" fill="#F3931F"/>
<path fill-rule="evenodd" clip-rule="evenodd" d="M181.316 85.8857C182.781 86.3098 182.659 85.1616 183.906 85.372C183.983 84.6882 181.8 83.8209 183.388 83.3173C182.806 81.9642 181.382 84.0078 180.798 84.3446L181.576 84.9434L181.316 85.8857Z" fill="#F3931F"/>
<path fill-rule="evenodd" clip-rule="evenodd" d="M180.022 85.2858L180.28 84.3446C179.777 84.3312 179.88 83.7168 179.762 83.3173C178.247 83.1841 178.171 84.4778 176.654 84.3446C176.701 85.87 179.499 87.3059 180.798 85.8857L180.022 85.2858Z" fill="#F3931F"/>
<path fill-rule="evenodd" clip-rule="evenodd" d="M132.629 89.4803C134.723 87.6729 133.85 91.1322 132.629 89.4803V89.4803Z" fill="#F3931F"/>
<path fill-rule="evenodd" clip-rule="evenodd" d="M76.6853 89.4803C75.9022 87.6662 75.7036 90.426 76.1685 90.5077C76.4811 90.5614 76.8264 89.7858 76.6865 89.4803H76.6853Z" fill="#F3931F"/>
<path fill-rule="evenodd" clip-rule="evenodd" d="M130.04 92.0476C129.974 90.9139 127.842 91.8293 126.932 91.535C126.996 92.6687 129.13 91.7521 130.04 92.0476Z" fill="#F3931F"/>
<path fill-rule="evenodd" clip-rule="evenodd" d="M91.7053 96.1571C93.4973 94.8287 89.0511 94.916 91.7053 96.1571V96.1571Z" fill="#F3931F"/>
<path fill-rule="evenodd" clip-rule="evenodd" d="M91.7052 96.6708H90.6692C90.4277 97.7664 91.4095 97.6489 92.2231 97.697C92.1261 97.2807 91.7052 97.1845 91.7052 96.6708Z" fill="#F3931F"/>
<path fill-rule="evenodd" clip-rule="evenodd" d="M102.583 98.2107C102.658 99.3332 103.888 99.3142 105.172 99.2381C104.74 98.4737 103.51 98.495 102.583 98.2107Z" fill="#F3931F"/>
<path fill-rule="evenodd" clip-rule="evenodd" d="M39.4029 101.293C36.9981 101.577 38.9695 105.153 39.9197 105.401C41.9386 104.883 39.9998 103.633 40.4377 101.806C39.8012 102.379 39.3702 102.252 39.4018 101.293H39.4029Z" fill="#F3931F"/>
<path fill-rule="evenodd" clip-rule="evenodd" d="M107.244 103.346C107.47 103.978 107.907 104.401 108.798 104.374C108.582 103.741 108.139 103.318 107.244 103.346Z" fill="#F3931F"/>
<path fill-rule="evenodd" clip-rule="evenodd" d="M109.321 104.887C109.663 105.577 110.429 105.844 111.393 105.915C111.268 105.012 110.502 104.744 109.321 104.887Z" fill="#F3931F"/>
<path fill-rule="evenodd" clip-rule="evenodd" d="M36.803 107.455C35.2118 106.67 35.2118 110.809 36.803 110.023V107.455Z" fill="#F3931F"/>
<path fill-rule="evenodd" clip-rule="evenodd" d="M39.9108 119.267C39.0667 119.178 38.8647 122.627 40.4287 121.836C40.6443 120.597 39.4898 120.719 39.9108 119.267Z" fill="#F3931F"/>
<path fill-rule="evenodd" clip-rule="evenodd" d="M54.424 119.781C52.4029 119.422 54.3991 121.582 54.424 122.349C55.935 121.912 53.7446 121.057 54.424 119.781Z" fill="#F3931F"/>
<path fill-rule="evenodd" clip-rule="evenodd" d="M41.9825 124.917C40.5234 125.436 42.1258 127.098 41.9825 127.998C43.5578 127.364 41.4216 126.232 41.9825 124.917Z" fill="#F3931F"/>
<path fill-rule="evenodd" clip-rule="evenodd" d="M154.901 128.511C157.565 129.752 153.118 129.839 154.901 128.511V128.511Z" fill="#F3931F"/>
<path fill-rule="evenodd" clip-rule="evenodd" d="M53.8946 130.566C52.6081 130.643 53.7445 132.304 53.8946 132.621C55.4485 132.282 53.4093 131.523 53.8946 130.566Z" fill="#F3931F"/>
<path fill-rule="evenodd" clip-rule="evenodd" d="M120.716 140.323H118.126C118.626 141.539 119.035 142.845 121.234 142.377V140.836L120.458 141.093L120.716 140.323Z" fill="#F3931F"/>
<path fill-rule="evenodd" clip-rule="evenodd" d="M94.8131 140.323C95.2904 141.219 96.4324 141.456 97.9209 141.35C97.2844 140.614 96.1515 140.377 94.8131 140.323Z" fill="#F3931F"/>
<path fill-rule="evenodd" clip-rule="evenodd" d="M60.6284 140.836C59.0102 141.666 61.6903 142.464 61.6643 143.404C63.2837 142.57 60.607 141.778 60.6284 140.835V140.836Z" fill="#F3931F"/>
<path fill-rule="evenodd" clip-rule="evenodd" d="M130.558 151.109C129.154 151.563 130.993 153.387 131.594 152.136C131.466 151.58 130.564 151.783 130.558 151.109Z" fill="#F3931F"/>
<path fill-rule="evenodd" clip-rule="evenodd" d="M77.2133 151.109C77.439 151.74 77.8757 152.163 78.7661 152.136C78.5393 151.505 78.0969 151.076 77.2122 151.109H77.2133Z" fill="#F3931F"/>
<path fill-rule="evenodd" clip-rule="evenodd" d="M133.147 160.353C131.771 160.006 130.51 159.544 129.522 158.813C128.148 158.65 130.006 161.689 127.968 160.868C128.865 162.208 132.528 163.278 133.665 161.38L132.888 161.123L133.147 160.353Z" fill="#F3931F"/>
<path fill-rule="evenodd" clip-rule="evenodd" d="M80.3212 155.731C80.7613 156.494 81.6246 156.835 82.9099 156.759C82.4676 155.999 81.6043 155.657 80.3201 155.732L80.3212 155.731Z" fill="#F3931F"/>
<path fill-rule="evenodd" clip-rule="evenodd" d="M149.721 158.812H148.685V159.839H149.721V158.812Z" fill="#F3931F"/>
<path fill-rule="evenodd" clip-rule="evenodd" d="M120.716 168.057C119.261 168.283 120.104 169.139 119.162 170.624C119.579 170.351 120.003 170.088 120.716 170.111V168.057Z" fill="#F3931F"/>
<path fill-rule="evenodd" clip-rule="evenodd" d="M95.849 168.57C95.9743 169.474 96.7405 169.741 97.9209 169.597C97.5869 168.912 96.8206 168.634 95.849 168.57Z" fill="#F3931F"/>
<path fill-rule="evenodd" clip-rule="evenodd" d="M116.054 171.652C115.895 170.955 114.758 171.225 113.983 171.138C114.127 172.325 115.366 172.315 116.054 171.652Z" fill="#F3931F"/>
<path fill-rule="evenodd" clip-rule="evenodd" d="M121.234 176.274C120.178 176.426 120.218 177.664 119.162 177.815C119.765 179.184 121.912 177.857 121.234 176.274Z" fill="#F3931F"/>
<path fill-rule="evenodd" clip-rule="evenodd" d="M107.244 176.787C107.585 177.477 108.351 177.744 109.316 177.815C109.197 176.916 108.431 176.637 107.244 176.787Z" fill="#F3931F"/>
<path fill-rule="evenodd" clip-rule="evenodd" d="M141.434 177.301C140.144 177.509 141.403 179.292 142.47 178.841C142.287 178.167 141.558 178.029 141.434 177.301Z" fill="#F3931F"/>
<path fill-rule="evenodd" clip-rule="evenodd" d="M141.952 208.629C141.071 208.439 140.974 209.029 140.916 209.655C141.357 209.561 141.405 209.857 141.434 210.168C142.042 210.083 141.872 209.227 141.952 208.628V208.629Z" fill="#F3931F"/>
<path fill-rule="evenodd" clip-rule="evenodd" d="M140.399 211.71C138.993 212.178 140.926 213.51 140.916 214.278C142.323 213.807 140.389 212.48 140.399 211.71Z" fill="#F3931F"/>
<path fill-rule="evenodd" clip-rule="evenodd" d="M20.7571 227.631C18.2214 226.272 16.8514 229.332 20.7571 227.631V227.631Z" fill="#F3931F"/>
<path fill-rule="evenodd" clip-rule="evenodd" d="M71.5159 231.226C70.5894 232.018 68.9226 232.076 69.4451 234.308C71.1491 234.285 71.4188 232.842 71.5159 231.226Z" fill="#F3931F"/>
<path fill-rule="evenodd" clip-rule="evenodd" d="M87.0549 235.334C88.672 235.57 88.7104 234.237 88.6077 232.767C87.583 233.119 87.2265 234.136 87.0538 235.334H87.0549Z" fill="#F3931F"/>
<path fill-rule="evenodd" clip-rule="evenodd" d="M92.2345 234.821C91.3893 234.732 91.1873 238.181 92.7513 237.389C93.1722 235.934 92.0178 236.063 92.2334 234.821H92.2345Z" fill="#F3931F"/>
<path fill-rule="evenodd" clip-rule="evenodd" d="M44.5826 115.159C44.5307 116.75 44.8185 118.007 45.6186 118.754L46.4706 118.351L46.6545 119.267H47.1725L46.914 118.497L47.6904 118.754C47.4094 116.882 47.3225 116.387 46.6545 114.131C46.2347 114.229 46.1377 114.647 45.6186 114.645L45.3601 115.415L44.5826 115.159Z" fill="#F3931F"/>
<path fill-rule="evenodd" clip-rule="evenodd" d="M47.6803 119.267H47.1635C47.3452 119.941 48.0753 120.075 48.1994 120.808C49.0559 121.029 48.152 118.893 47.6814 118.754V119.267H47.6803Z" fill="#F3931F"/>
<path fill-rule="evenodd" clip-rule="evenodd" d="M43.5466 38.6369C42.7205 36.7668 40.4004 35.2291 37.8489 36.5822C37.3772 39.9608 39.9592 40.3111 40.4388 42.7452C39.7707 43.7055 38.1367 41.2971 38.3669 39.6643C35.6981 38.9984 34.4725 41.5903 35.7782 43.2589C34.7005 44.3837 34.1035 42.809 33.1895 43.7726C33.8643 46.8402 32.2145 47.6 31.6356 49.422C34.8991 51.1354 34.4974 55.7955 32.1535 58.1524L33.0766 57.97L33.7063 58.6661C36.2634 59.0678 39.0158 54.0731 39.9208 57.6387C41.3562 55.6399 40.7818 53.9455 41.4747 51.9893L41.2163 51.4756L41.4747 50.963C40.3429 50.6161 41.46 48.2671 43.0275 48.9083L43.5455 48.6509L44.0634 48.9083V48.3946C44.6277 45.7759 47.3473 48.1249 48.2072 46.3399C49.2702 46.4843 49.2409 47.712 49.76 48.3946C50.7395 47.4825 53.1815 48.0197 54.9396 47.8809L54.6812 46.9398L55.4587 46.3399V45.3137L54.5086 45.5699L53.9037 44.8C52.3092 44.4172 52.9084 46.2101 51.315 45.8273C51.1909 44.4094 49.787 44.2594 48.7251 43.7726L48.2083 44.0289L47.6903 43.7726C45.79 46.7215 46.2233 41.0195 48.2083 42.7452H48.7251V43.2589C49.7543 43.2522 49.383 41.8578 50.797 42.2316L50.5397 41.4616L51.3161 41.2042C51.0419 40.7912 50.7756 40.3715 50.7982 39.6643C52.4243 39.4214 52.167 41.0464 53.388 41.2042L53.7502 40.3313L54.4239 39.6643C56.2351 36.9145 51.0148 34.6852 49.7622 37.6095C48.4317 37.5603 49.0208 35.604 47.6903 35.5559C45.5598 35.839 44.9696 37.6487 45.1016 40.1779H44.0657L43.5477 40.4342L43.0297 40.1779C42.9135 40.8315 41.4849 40.8505 41.477 40.1779C42.3132 40.3223 42.3685 39.6922 43.0297 39.6643L42.7725 38.8932L43.5488 38.6369H43.5466Z" fill="#F3931F"/>
<path fill-rule="evenodd" clip-rule="evenodd" d="M28.9577 66.6265L28.0075 66.3691C27.941 67.6348 27.9297 68.8435 28.5255 69.4512C30.3187 68.4898 31.885 67.3047 34.7411 67.3964C35.5875 69.1244 36.0885 71.1959 36.813 73.0458C38.7111 72.8757 39.6906 73.6166 40.9556 74.0732V75.1006L41.9069 74.8432L42.5107 75.6143C42.9508 75.7083 42.9993 75.4128 43.0275 75.1006C44.0826 76.6237 44.7281 78.5497 46.6533 79.2089C49.558 77.1251 53.4388 76.0071 54.4228 72.0185L54.6824 71.5048L54.9397 70.9922C54.4352 70.9777 54.5379 70.3633 54.4228 69.9649H55.4588C55.5569 70.3812 55.9779 70.4774 55.9756 70.9922L56.7531 70.7348L57.0115 71.5048C60.0246 69.994 61.7489 61.4952 59.0845 59.1797C56.6335 58.9761 56.7226 61.2882 53.9037 60.7208L53.3869 60.9771L52.8689 60.7208C53.1826 61.9496 53.6137 63.062 53.3869 64.8291L54.3371 64.5717L54.9408 65.3428C55.8266 65.3204 56.2837 65.7233 56.4947 66.3691C55.3143 65.664 54.547 67.693 54.4228 66.3691L53.6464 66.6265L52.8678 66.3691C46.9106 66.1766 43.7779 64.7609 37.331 64.8291V63.8018L36.5535 64.0581L36.295 63.2881C32.9412 63.0441 32.9435 66.1262 29.5615 65.8565L28.9566 66.6265H28.9577ZM39.9107 68.9375C39.8373 68.3309 38.9887 67.7736 39.9107 67.3964C39.9964 68.003 40.8383 68.5603 39.9107 68.9375ZM46.6544 74.0732C45.289 74.2299 45.3183 73.0011 45.1016 72.0185C45.6546 71.5395 45.2619 70.1238 46.6544 70.4785C45.9424 72.1024 46.5359 72.1942 46.6544 74.0732ZM43.0185 72.0185C41.9521 72.4695 40.6927 70.6867 41.9825 70.4785C42.1123 71.2116 42.8458 71.3436 43.0185 72.0185Z" fill="#F3931F"/>
<path fill-rule="evenodd" clip-rule="evenodd" d="M34.828 92.305L34.2243 91.535C33.0687 93.2988 32.2111 95.3591 32.1524 98.2107L33.1015 97.9544L33.7063 98.7244C35.3663 97.6466 36.8175 94.1505 35.7782 92.0476L34.828 92.305Z" fill="#F3931F"/>
<path fill-rule="evenodd" clip-rule="evenodd" d="M32.756 98.9818L32.1523 98.2107C31.6072 100.087 30.6435 103.642 31.6343 105.401L32.5834 105.144L33.1894 105.915C35.1021 105.416 34.7737 102.693 35.2612 100.779C33.5313 101.295 33.5618 100.066 33.7073 98.7244L32.7572 98.9818H32.756Z" fill="#F3931F"/>
<path fill-rule="evenodd" clip-rule="evenodd" d="M35.6586 121.504L34.7343 121.322C36.7791 126.317 39.1139 131.154 40.432 136.215C41.6609 140.933 41.5537 143.696 43.5398 146.487C44.4471 147.759 46.2346 148.106 47.6824 149.568C50.6266 152.541 53.1713 156.565 56.4879 159.84C61.3223 161.384 65.4728 165.8 70.9899 167.543C76.0308 169.136 81.9304 168.717 84.975 173.193L85.3384 172.32L86.011 171.653C84.2269 168.287 81.3448 166.009 76.1707 166.003V164.976L75.3921 165.234L75.6516 164.461H73.0629C73.3608 163.218 75.0174 163.32 76.1707 162.922L75.9112 162.15L76.6887 161.895C76.7925 159.909 74.127 160.669 73.064 159.84V158.813L72.2854 158.557L72.5449 157.787H70.4731V156.246L69.6955 156.502L69.4371 155.731H68.4012L68.6596 157.015L67.3652 156.759C67.2659 157.176 66.8461 157.271 66.8473 157.787L67.6248 158.386L67.3664 159.327C68.373 161.753 68.0671 160.857 66.8484 160.868C67.3664 159.327 66.59 158.728 66.59 158.728L66.8484 157.787C64.9368 157.798 63.2824 157.556 63.2237 155.731C64.5113 155.675 64.8262 154.77 65.8125 155.731L66.0709 154.961L66.8484 154.704C67.2885 154.799 67.337 154.503 67.3664 154.191L66.5889 153.935L66.8473 153.164C64.491 152.961 62.4948 151.999 61.6676 154.191C60.8314 154.335 60.7761 153.705 60.1148 153.677C59.5607 151.759 61.4001 152.213 61.1507 150.596H60.6328L60.1159 150.853L59.598 150.596C59.4998 151.013 59.0789 151.109 59.0811 151.624C58.2449 151.769 58.1885 151.139 57.5272 151.111L56.9235 151.881L55.9722 151.625C56.0173 152.354 56.0591 153.079 55.4553 153.165C55.5501 152.728 55.2522 152.68 54.9374 152.652C55.9733 151.625 55.716 150.683 55.716 150.683L56.4924 150.084C56.2701 149.106 55.3764 148.793 55.4565 147.516L54.9385 147.773L54.4217 147.516C52.2629 147.26 51.7483 145.374 51.3139 143.407C50.6119 143.566 50.885 144.693 50.7959 145.462C49.2307 144.104 48.8504 141.57 47.1712 140.326V139.812H47.6881C46.3283 137.395 44.2711 135.668 43.5443 132.623V131.768L43.0263 131.083C40.1916 128.929 39.4468 124.705 38.3669 120.812H36.295L35.6687 121.507L35.6586 121.504Z" fill="#F3931F"/>
<path fill-rule="evenodd" clip-rule="evenodd" d="M96.6367 190.569L95.8592 191.167C97.1219 194.024 101.406 193.886 104.664 194.762C103.253 201.922 100.518 207.769 97.9311 213.765L98.7086 214.365L98.4502 215.306C101.366 216.128 99.3292 217.62 97.9322 218.388C98.5258 216.772 97.1197 217.139 96.8963 216.333L96.3794 214.791C95.6041 215.393 94.2613 215.43 93.7896 216.332L94.5671 216.588L94.3087 217.36C95.1426 217.139 96.0454 219.273 94.8255 219.414L95.0839 219.926L94.8255 220.439C94.698 220.997 93.7952 220.787 93.7896 221.467L94.048 222.238L93.2716 221.98C93.3551 222.579 93.1565 222.895 92.7536 223.008C92.1149 221.448 90.9729 223.565 89.6458 223.008V221.98L88.6956 222.238L88.0919 221.467H85.5021L84.9852 221.724L84.4673 221.467C83.9583 223.041 83.086 220.876 82.3954 220.953L81.619 220.698L80.8403 220.953C81.1417 222.794 79.3079 222.515 77.7325 222.494L76.9561 222.75L76.6966 221.979C76.2802 222.251 75.8559 222.515 75.1438 222.493L74.6259 223.725L74.109 222.493H72.5551V221.466H70.4832C70.0093 224.718 68.2658 221.326 66.8575 222.493V221.979L65.9084 222.237L65.3047 221.466C62.7069 221.288 61.7556 222.741 61.1609 224.548C68.2884 224.62 73.0437 226.113 81.3606 224.548L82.137 224.804L81.8785 225.574H83.4324L83.6909 224.804L84.4684 225.06C84.6275 224.363 85.765 224.635 86.5403 224.548V226.088L87.3167 226.688L87.0594 227.629C93.4939 225.386 103.5 219.732 110.366 225.574C111.294 225.64 111.459 224.945 112.438 225.061C114.085 225.14 114.717 226.226 116.581 226.089C115.666 223.229 112.745 222.361 111.402 219.926C117.764 216.064 124.537 221.712 130.565 220.952L130.307 220.011L131.083 219.412C128.993 216.005 122.197 217.268 120.725 213.249C121.798 206.78 124.503 201.931 125.905 195.787C131.546 193.676 135.315 189.711 142.479 189.111C144.11 187.305 146.194 185.949 149.73 186.029C152.809 183.262 155.447 180.058 159.572 178.326V176.786C164.502 175.542 164.518 168.613 167.858 163.434C170.432 159.444 173.034 159.49 171.484 154.702C170.883 154.273 170.096 154.025 168.894 154.19C170.33 153.217 172.314 152.788 173.556 151.623C173.833 149.636 172.631 149.116 173.038 147.002H170.448C171.504 144.888 173.125 146.788 174.592 146.488C180.592 145.261 184.722 140.557 185.987 134.162C190.045 132.875 196.102 130.846 194.791 125.945C195.686 124.093 198.004 123.651 198.935 121.837C194.91 112.297 205.898 111.705 208.776 105.916C208.132 104.33 206.964 103.262 206.187 101.808L205.583 102.578L204.633 102.32C203.113 108.822 193.093 109.777 186.505 112.079C184.087 112.924 181.664 114.481 178.217 115.16L178.994 115.416L178.735 116.187C180.579 116.941 184.358 117.138 184.951 115.16C186.145 115.002 185.525 116.644 186.505 116.701C184.976 118.778 182.822 120.239 178.735 119.782C180.745 121.499 178.169 124.639 180.289 125.945C179.678 126.878 177.589 126.348 176.663 126.973L176.923 127.914L176.145 128.512C176.051 128.949 176.347 128.997 176.663 129.026C176.223 130.532 175.36 128.358 174.074 129.026C173.829 130.639 175.468 130.383 175.627 131.595C173.251 132.068 173.126 130.31 170.966 130.567C171.24 130.98 171.505 131.401 171.484 132.108C170.223 132.398 168.123 129.564 167.858 132.108L168.118 132.878L167.858 133.648C169.107 133.438 168.984 134.586 170.448 134.162C170.543 134.598 170.245 134.646 169.93 134.676L170.189 135.189L169.93 135.703V136.73L170.707 136.987L169.93 137.244C170.058 137.801 170.959 137.592 170.966 138.27C169.186 140 167.219 137.561 165.268 137.758C166.854 138.887 165.893 140.746 163.714 140.837L163.974 141.78L163.196 142.38V142.893L163.974 143.148L163.714 143.92C164.633 144.037 166.309 143.403 165.786 144.947L165.528 145.203L165.268 145.46C165.709 145.366 165.758 145.661 165.786 145.973C165.882 146.41 165.585 146.457 165.268 146.486L165.528 147.256L164.75 147.001V148.028L165.528 148.283L164.75 148.539C165.497 149.341 166.837 149.553 166.304 151.621C164.044 151.981 164.002 150.139 162.16 150.082C161.054 151.13 162.307 152.114 162.678 153.164H161.642L161.902 153.934L161.126 154.19C161.285 155.402 162.924 155.146 162.678 156.758L162.938 157.528L162.16 157.272C162.015 158.101 162.651 158.155 162.678 158.812H161.642L160.97 159.48L160.09 159.839C161.224 160.907 159.635 161.499 160.608 162.407C159.617 163.356 158.408 160.162 156.982 159.839L156.722 160.61L155.946 160.867C156.261 162.094 155.295 164.592 156.464 164.975C155.268 165.672 154.154 166.452 152.32 166.515L152.578 167.029L152.32 167.541C152.327 168.562 153.733 168.194 153.356 169.595H152.32L152.574 170.366L151.798 170.108C153.24 172.425 150.41 172.753 152.316 174.218C152.163 175.439 150.914 173.647 150.762 173.191C149.84 173.567 150.687 174.124 150.762 174.731C148.817 174.201 146.653 174.574 145.064 171.136C143.894 171.344 145.337 174.145 142.992 173.191L143.252 173.961L142.474 173.705C139.032 173.673 143.353 176.116 144.546 176.272C144.298 177.888 145.284 178.28 145.582 179.354C143.501 178.659 144.212 179.195 144.546 180.894C143.082 180.471 143.204 181.618 141.956 181.406C140.543 178.87 137.806 177.647 137.812 173.704C138.167 172.685 140.899 174.023 140.402 172.163H139.366V171.136C137.904 170.713 138.026 171.86 136.776 171.65L137.036 172.419L136.258 172.163H135.223L135.482 173.104L134.706 173.705C134.558 174.6 136.359 176.461 134.188 176.272C135.542 178.524 137.229 180.446 137.294 183.976C136.834 183.747 136.369 183.524 136.258 182.948L135.741 183.205L135.223 182.948H134.705L134.188 183.205L133.67 182.948C133.741 184.759 135.151 185.244 135.223 187.057C133.195 187.357 133.9 184.944 132.634 184.489L132.374 185.26L131.598 185.003C129.778 183.383 128.93 180.801 127.972 178.327C127.052 179.129 127.063 180.849 125.382 180.895C125.886 182.792 127.242 183.844 126.936 186.544C125.845 188.228 122.393 189.765 121.239 187.057L120.461 187.313L119.685 187.57C116.509 188.494 117.17 185.612 115.541 185.002L114.937 185.773L113.987 185.517C113.97 188.367 114.532 189.41 113.987 191.165C112.93 189.795 113.045 189.66 110.879 190.138C110.937 191.416 111.85 191.728 110.879 192.706C110.121 191.039 109.887 191.25 107.771 191.679V190.138L106.995 190.395L106.735 189.624C106.252 190.001 105.951 190.557 105.699 191.164C105.259 191.259 105.211 190.962 105.181 190.651L104.664 190.909L104.146 190.651H103.628L103.887 191.422L103.11 191.165C101.632 192.595 98.9535 190.861 97.9299 190.138L97.1524 190.395L97.412 189.624H96.376L96.6457 190.566L96.6367 190.569ZM182.352 127.997C184.828 126.57 183.606 129.682 182.352 127.997V127.997ZM113.464 196.303C115.346 196.322 116.285 193.707 117.608 194.763C116.114 204.41 115.41 214.839 105.696 216.333C106.775 208.159 110.954 203.056 113.47 196.304L113.464 196.303ZM107.762 220.44C106.844 220.324 105.168 220.958 105.69 219.414C106.878 219.264 107.644 219.542 107.762 220.44Z" fill="#F3931F"/>
<path fill-rule="evenodd" clip-rule="evenodd" d="M91.4468 217.102L91.7052 216.332C88.2272 215.785 84.2889 215.17 83.9356 218.899L84.7143 219.156L85.4907 219.413C86.9543 219.836 86.8324 218.688 88.0805 218.899L88.5974 218.643L89.1153 218.899C89.1988 218.297 90.0599 218.466 90.6681 218.387L91.1353 217.411L92.2231 217.359L91.4468 217.102Z" fill="#F3931F"/>
<path fill-rule="evenodd" clip-rule="evenodd" d="M69.4879 219.874L70.4719 219.412C69.1155 218.531 68.9191 216.5 67.3641 215.816L66.8461 216.074L66.3293 215.816C66.3214 216.837 64.9153 216.47 65.2934 217.871C65.9829 218.386 66.8563 218.718 67.3652 219.412L68.6596 219.668L68.4012 220.951H69.4371L69.4913 219.871L69.4879 219.874Z" fill="#F3931F"/>
<path fill-rule="evenodd" clip-rule="evenodd" d="M202.811 100.864L203.589 100.265V98.7244L203.329 97.9544L203.589 97.1833C199.523 98.9728 195.681 100.984 191.158 102.319L191.934 102.919L191.676 103.86C193.506 104.679 194.51 103.337 195.819 104.887C198.546 104.168 200.39 102.572 203.071 101.806L202.811 100.864Z" fill="#F3931F"/>
<path fill-rule="evenodd" clip-rule="evenodd" d="M206.023 96.5163L206.696 97.1833C209.709 96.4044 211.859 94.7716 211.875 91.0214L210.926 91.2777L210.321 90.5077C208.822 92.615 206.62 94.0263 205.142 96.1571L206.023 96.5163Z" fill="#F3931F"/>
<path fill-rule="evenodd" clip-rule="evenodd" d="M190.38 103.261L190.64 102.319C189.887 102.6 187.963 101.719 188.05 102.833L188.956 103.346L188.05 103.86C188.195 104.689 187.56 104.744 187.532 105.401L188.235 106.025L188.05 106.942C189.89 106.884 189.933 105.043 192.194 105.401C192.478 104.263 191.204 104.669 191.158 103.86L190.38 103.261Z" fill="#F3931F"/>
<path fill-rule="evenodd" clip-rule="evenodd" d="M185.719 104.289L185.978 103.346C182.759 103.922 180.084 105.035 179.244 107.968C180.156 107.231 180.425 107.498 180.28 108.996C182.402 109.216 183.599 108.52 184.942 107.968L184.684 107.027L185.46 106.429C185.643 105.754 186.372 105.621 186.496 104.887L185.719 104.289Z" fill="#F3931F"/>
<path fill-rule="evenodd" clip-rule="evenodd" d="M169.145 116.614L169.404 115.673C168.984 115.575 168.887 115.157 168.368 115.159L167.271 115.85L166.813 114.645H165.259L165.518 115.415L164.741 115.673C165.444 116.723 169.406 119.319 169.921 117.214L169.145 116.614Z" fill="#F3931F"/>
<path fill-rule="evenodd" clip-rule="evenodd" d="M168.799 112.848L169.404 113.618C170.162 113.172 171.045 112.85 170.958 111.564L169.662 111.307L169.922 110.023H168.886L169.144 110.793L168.368 111.051C167.715 111.738 166.811 112.059 167.85 113.104L168.799 112.848Z" fill="#F3931F"/>
<path fill-rule="evenodd" clip-rule="evenodd" d="M170.526 107.197L171.476 107.454C171.695 106.382 171.12 106.094 170.958 105.4C171.362 103.577 174.695 104.655 175.101 102.832L174.842 102.318L175.101 101.805C171.5 102.882 166.897 102.151 164.224 100.778V99.7506L163.274 100.007L162.67 99.2369C161.202 99.7719 160.512 99.7719 159.045 99.2369L159.303 100.007L158.527 99.7506V100.264L159.303 100.863L159.045 101.805C160.162 103.095 163.097 102.58 163.706 104.373L164.483 104.116L164.224 104.886C164.218 105.907 162.81 105.539 163.188 106.941C166.384 107.392 167.223 107.022 169.922 107.967L170.526 107.197Z" fill="#F3931F"/>
<path fill-rule="evenodd" clip-rule="evenodd" d="M158.859 141.46L159.562 140.836C159.548 140.336 158.929 140.438 158.527 140.324L158.711 141.24L158.009 141.864C158.022 142.364 158.642 142.262 159.045 142.377L158.859 141.46Z" fill="#F3931F"/>
<path fill-rule="evenodd" clip-rule="evenodd" d="M157.306 140.946L158.009 140.323C157.229 139.385 155.774 139.115 154.901 138.268L154.125 138.525L153.865 137.755C152.624 138.92 151.011 139.717 148.685 139.808L148.945 140.579L148.685 141.35V142.891L148.945 143.661L148.167 143.404V144.431L148.945 145.032L148.685 145.973C149.103 146.414 150.105 146.278 150.239 147.001C150.636 145.127 153.621 143.8 152.829 142.379L152.571 141.607L153.347 141.864V141.351C154.022 140.223 156.147 141.958 157.491 141.864L157.306 140.946Z" fill="#F3931F"/>
<path fill-rule="evenodd" clip-rule="evenodd" d="M154.124 135.444L154.901 135.702C156.41 133.345 161.1 131.695 160.598 129.025L159.821 128.769L159.045 129.025C157.759 129.291 157.2 130.277 156.455 131.08L156.196 131.85L155.419 131.593C155.405 132.093 154.785 131.992 154.383 132.107L153.865 132.363L153.347 132.107C153.773 134.796 150.85 130.957 151.275 133.647L151.535 134.418L151.275 135.188C152.928 134.747 152.877 135.996 153.865 136.215L154.124 135.444Z" fill="#F3931F"/>
<path fill-rule="evenodd" clip-rule="evenodd" d="M139.621 145.545L140.399 144.946C139.109 144.897 138.104 143.451 136.773 143.405C136.011 143.379 135.245 144.437 135.219 144.432C133.552 144.199 134.772 142.177 132.629 143.92V144.432H132.111C132.21 144.848 132.631 144.945 132.629 145.46L133.838 145.288L133.665 146.487H139.881L139.621 145.545Z" fill="#F3931F"/>
<path fill-rule="evenodd" clip-rule="evenodd" d="M112.688 147.428L112.947 146.487C111.276 145.061 107.581 145.644 105.696 144.432L105.955 145.203L105.178 145.459C105.018 146.156 103.88 145.886 103.107 145.973L103.365 146.914L102.588 147.514C106.486 149.553 109.487 149.119 113.465 148.028L112.694 147.428H112.688Z" fill="#F3931F"/>
<path fill-rule="evenodd" clip-rule="evenodd" d="M163.188 148.028H163.706C162.463 146.564 160.738 148.273 163.188 148.539V148.027V148.028Z" fill="#F3931F"/>
<path fill-rule="evenodd" clip-rule="evenodd" d="M134.442 172.764L135.219 172.164C134.481 169.259 132.241 169.587 130.558 168.57L130.298 169.341L130.04 168.57C127.91 169.301 131.063 171.418 130.04 174.218L130.816 173.962L131.075 174.733C131.942 174.051 132.81 173.372 134.701 173.705L134.442 172.764Z" fill="#F3931F"/>
<path fill-rule="evenodd" clip-rule="evenodd" d="M120.458 186.289L121.234 186.545C121.284 185.225 123.256 185.81 123.306 184.49L122.53 184.234L122.788 183.463C122.085 180.279 120.153 181.315 117.09 180.896C116.94 183.783 117.999 185.472 119.68 186.545L120.458 186.289Z" fill="#F3931F"/>
<path fill-rule="evenodd" clip-rule="evenodd" d="M44.5824 128.255L45.1004 127.998H45.6172L45.3588 126.585L46.6532 125.944C46.5697 125.346 46.7683 125.03 47.1711 124.917V124.403H47.688C47.082 123.635 47.0436 122.302 46.1352 121.836L45.6172 122.092L45.1004 121.836V122.349C44.9718 122.995 44.0701 122.866 44.0645 122.349C43.7981 123.756 43.261 126.62 44.0645 128.511L44.5824 128.255Z" fill="#F3931F"/>
<path fill-rule="evenodd" clip-rule="evenodd" d="M53.388 56.355L53.9048 57.1249C55.2601 57.2693 56.1336 56.938 55.9767 55.585C53.6995 56.4915 48.7725 51.7128 46.1364 54.5576L46.3949 55.3276L46.1364 56.0976C46.6409 56.1121 46.5382 56.7265 46.6533 57.1249L47.4308 57.7248L47.1724 58.666C50.4878 59.8109 50.4653 57.9374 52.8689 57.1249L53.3869 56.355H53.388Z" fill="#F3931F"/>
<path fill-rule="evenodd" clip-rule="evenodd" d="M86.0946 72.1046L84.9729 72.0184C85.4005 74.3328 87.7376 74.7547 87.0447 78.1815C88.8661 80.0572 92.2199 82.2742 91.7053 84.8583C94.6709 84.799 95.8073 88.8133 98.4389 87.4256L98.1805 86.4844L98.958 85.8857C93.3123 82.7521 90.8308 76.4827 87.0447 71.5048L86.0957 72.1046H86.0946Z" fill="#F3931F"/>
<path fill-rule="evenodd" clip-rule="evenodd" d="M145.319 84.6009L145.06 85.372C145.193 86.4385 147.336 85.5118 147.649 86.3993L147.909 85.6282L148.167 86.3993C148.607 86.4933 148.656 86.199 148.685 85.8856C150.686 85.7849 152.502 85.8666 153.865 86.3993L153.607 85.6282L154.383 85.372C154.478 84.9355 154.18 84.8874 153.865 84.8583C156.195 84.3938 159.129 84.6859 162.671 84.3446C162.496 81.4393 161.149 81.4941 163.188 79.7226L162.308 79.3633L161.635 78.6952C156.163 80.4589 151.151 82.6804 145.06 83.8309L145.319 84.6009Z" fill="#F3931F"/>
<path fill-rule="evenodd" clip-rule="evenodd" d="M159.303 92.8187L159.563 92.0476C159.548 91.5485 158.93 91.6492 158.527 91.535L158.612 92.6475L157.491 92.5613C157.136 92.1651 154.404 91.2239 154.901 93.075C156.27 93.0884 158.145 92.596 157.491 94.616C158.265 93.8427 160.443 94.4616 160.081 92.5613L159.303 92.8187Z" fill="#F3931F"/>
<path fill-rule="evenodd" clip-rule="evenodd" d="M163.551 78.5408L164.224 79.2089C165.472 78.9985 165.349 80.1456 166.814 79.7226C166.53 77.6735 166.53 78.1759 166.814 76.1279L166.296 76.3842L165.778 76.1279C164.802 76.8722 163.087 76.8833 162.67 78.1815L163.551 78.5408Z" fill="#F3931F"/>
<path fill-rule="evenodd" clip-rule="evenodd" d="M55.373 44.0288L55.9778 44.7999C56.6583 44.6186 56.7937 43.8956 57.5317 43.7725C56.8716 42.7149 56.7046 41.1683 54.9419 41.2041L54.3133 41.9013L53.906 42.7452C54.1802 43.1581 54.4465 43.5789 54.4239 44.2862L55.373 44.0288Z" fill="#F3931F"/>
<path fill-rule="evenodd" clip-rule="evenodd" d="M197.373 57.6386C199.217 57.0712 199.079 54.5386 201.517 54.5576L201.257 53.6153L202.035 53.0166C201.256 50.193 199.672 48.1685 196.337 47.8809L196.596 48.3945L196.337 48.9082C199.228 49.5976 198.871 55.1967 196.855 56.6112L197.286 57.0399L197.373 57.6386Z" fill="#F3931F"/>
<path fill-rule="evenodd" clip-rule="evenodd" d="M211.617 65.2566L210.839 65.8565C211.944 67.778 210.778 68.7752 209.803 69.9648L210.581 70.2211L210.321 70.9922C212.805 70.3722 215.709 70.1696 216.537 67.9101C217.069 66.1844 214.925 67.111 213.947 66.8827C214.045 66.4664 214.466 66.3702 214.465 65.8565L213.689 65.2566L213.947 64.3154H211.357L211.617 65.2566Z" fill="#F3931F"/>
<path fill-rule="evenodd" clip-rule="evenodd" d="M206.437 79.6364L206.696 78.6952C205.859 78.8396 205.805 78.2095 205.142 78.1815V78.6952H204.624V79.2089C203.872 80.0035 202.604 80.2878 200.999 80.2363C199.757 79.2425 199.417 77.3534 197.373 77.1542C197.245 77.7115 196.343 77.5033 196.337 78.1815H196.855V78.6952H197.891C198.176 79.8334 196.902 79.426 196.855 80.2363H197.373V80.75H198.409C197.421 81.4819 196.16 81.9441 194.783 82.2899C196.078 83.2009 195.343 82.9446 195.301 84.8583C194.199 84.6356 194.294 82.9312 192.194 84.3446L192.452 85.1146L192.194 85.8857C194.026 87.7647 192.379 89.0618 191.676 91.0214L192.6 90.8378L193.229 91.5351C196.403 92.2849 195.133 88.6276 197.373 88.453C198.88 88.8995 197.956 89.2218 197.891 90.5077C203.064 89.1312 207.009 86.5381 211.875 84.8583C211.743 81.9071 208.351 82.1892 205.142 82.2899C205.308 81.0846 206.745 81.1417 207.214 80.2363L206.437 79.6364Z" fill="#F3931F"/>
<path fill-rule="evenodd" clip-rule="evenodd" d="M191.157 93.5886L190.64 92.5613C188.266 93.9747 186.366 95.8571 184.424 97.697L185.201 97.9544L185.46 98.7244C187.807 98.6561 189.026 97.4687 191.157 97.1833C188.714 95.8717 192.277 95.5337 193.747 95.1297C192.008 94.0744 193.384 94.0676 193.747 92.5613C193.328 92.6586 193.23 93.0761 192.711 93.075H192.193L191.157 93.5886Z" fill="#F3931F"/>
<path fill-rule="evenodd" clip-rule="evenodd" d="M209.027 78.1815L209.285 79.2089C209.888 79.2928 210.207 79.0959 210.321 78.6952L209.415 78.1815L209.285 77.1542H208.767L209.027 78.1815Z" fill="#F3931F"/>
<path fill-rule="evenodd" clip-rule="evenodd" d="M211.543 77.2638L211.358 78.1804C214.077 77.9655 214.339 75.3154 216.02 74.072C214.634 73.2629 213.447 74.2992 211.876 73.0447L212.136 73.8158L211.357 74.0732C211.452 74.5096 211.155 74.5577 210.839 74.5868L211.099 75.3568L210.321 75.6142C210.419 76.0305 210.84 76.1268 210.839 76.6405L211.543 77.2638Z" fill="#F3931F"/>
<path fill-rule="evenodd" clip-rule="evenodd" d="M187.532 63.2881C186.928 64.0581 186.037 64.5438 185.978 65.8565C187.001 65.5006 187.358 64.4867 187.532 63.2881Z" fill="#F3931F"/>
<path fill-rule="evenodd" clip-rule="evenodd" d="M74.6135 63.8017C75.962 67.9022 73.0596 60.3749 74.6135 63.8017V63.8017Z" fill="#F3931F"/>
<path fill-rule="evenodd" clip-rule="evenodd" d="M64.772 110.537C63.0556 111.038 65.3509 111.552 65.29 112.078C66.801 111.789 64.5023 111.275 64.772 110.537Z" fill="#F3931F"/>
<path fill-rule="evenodd" clip-rule="evenodd" d="M66.3373 112.59C67.0189 113.627 68.0379 114.33 69.4451 114.645C68.7544 113.61 67.7399 112.906 66.3373 112.59Z" fill="#F3931F"/>
<path fill-rule="evenodd" clip-rule="evenodd" d="M49.7521 122.349C48.5604 122.754 50.6424 124.146 50.788 124.917C52.4062 124.087 49.7295 123.291 49.7521 122.349Z" fill="#F3931F"/>
<path fill-rule="evenodd" clip-rule="evenodd" d="M87.0549 125.43C84.8419 126.848 89.2068 125.976 89.1267 126.971C90.9075 125.976 87.1406 126.255 87.0549 125.43Z" fill="#F3931F"/>
<path fill-rule="evenodd" clip-rule="evenodd" d="M115.018 141.35C114.276 139.832 114.621 142.541 116.054 141.863C117 141.465 115.745 141.311 115.018 141.35Z" fill="#F3931F"/>
<path fill-rule="evenodd" clip-rule="evenodd" d="M140.399 143.405C140.516 144.145 141.945 143.584 141.952 144.432C143.253 144.218 141.455 142.966 140.399 143.405Z" fill="#F3931F"/>
<path fill-rule="evenodd" clip-rule="evenodd" d="M87.5616 148.028C86.8371 148.208 87.5176 148.931 88.0796 149.054C88.1642 149.652 87.9656 149.968 87.5616 150.081C87.7726 151.361 89.5703 150.112 89.1155 149.054C88.7059 148.615 87.7027 148.744 87.5616 148.028Z" fill="#F3931F"/>
<path fill-rule="evenodd" clip-rule="evenodd" d="M136.255 154.19C135.937 153.732 135.629 153.272 136.255 153.163C135.645 151.611 133.687 151.399 132.111 152.136C132.299 153.187 135.93 153.431 134.701 154.19C134.927 154.95 135.364 153.987 136.255 154.19Z" fill="#F3931F"/>
<path fill-rule="evenodd" clip-rule="evenodd" d="M141.434 175.246C144.259 179.451 139.459 175.931 141.434 175.246V175.246Z" fill="#F3931F"/>
<path fill-rule="evenodd" clip-rule="evenodd" d="M158.009 225.063C156.054 227.407 154.054 228.127 154.383 231.739C157.096 234.069 161.483 232.495 163.706 232.253C162.516 228.708 167.549 228.646 168.886 226.09L168.108 225.834L168.368 225.061C167.548 222.142 165.169 226.681 164.224 225.061L163.447 224.806L163.188 224.035C161.868 224.952 160.166 225.49 159.045 226.602V225.575L158.267 225.832L158.009 225.061V225.063Z" fill="#F3931F"/>
<path fill-rule="evenodd" clip-rule="evenodd" d="M176.914 223.779L177.172 224.55C179.426 223.903 182.82 222.127 181.834 219.927C178.782 219.639 179.089 222.682 176.654 223.009L176.914 223.779Z" fill="#F3931F"/>
<path fill-rule="evenodd" clip-rule="evenodd" d="M75.6494 232.253V231.226C74.0537 231.585 74.654 231.585 73.0606 231.226C72.8778 233.925 70.1007 236.313 72.0247 239.443C73.8043 239.667 74.926 239.241 76.1685 238.93V236.875C74.3008 236.501 75.831 235.275 75.1325 233.281L74.873 232.51L75.6505 232.254L75.6494 232.253Z" fill="#F3931F"/>
<path fill-rule="evenodd" clip-rule="evenodd" d="M146.095 221.982V222.495C145.914 223.215 145.184 222.539 145.06 221.982C143.937 221.896 144.825 223.803 144.542 224.55C143.484 224.059 142.493 223.501 141.434 223.009L141.175 223.78L140.916 223.009C140.08 223.154 140.024 222.524 139.363 222.496V223.009H138.845C138.109 222.965 137.378 222.924 137.291 223.523L137.55 224.293L137.291 225.062C139.313 227.104 135.753 227.964 134.701 228.658C135.587 228.636 136.042 229.039 136.255 229.686L137.204 229.428L137.809 230.199C138.27 229.972 138.736 229.748 138.845 229.173C140.248 229.836 142.045 230.108 142.47 231.739C145.03 230.258 144.871 231.821 148.167 231.739L147.909 230.798L148.685 230.198C148.78 229.762 148.483 229.714 148.167 229.686C149.722 227.803 148.315 222.984 151.275 222.495C152.044 222.719 151.071 223.152 151.275 224.035C152.773 223.808 153.636 222.952 153.865 221.468L153.089 221.212L153.347 220.44C152.242 220.68 152.361 219.706 152.311 218.901L151.535 218.644L151.793 217.873H150.757L150.239 218.901L149.721 217.873C149.305 218.145 148.881 218.409 148.167 218.387L148.427 219.328L147.649 219.927V221.468H146.613L146.873 222.238L146.095 221.982Z" fill="#F3931F"/>
<path fill-rule="evenodd" clip-rule="evenodd" d="M136.513 224.464L136.773 223.523C134.216 223.554 132.466 224.388 131.075 225.576C129.736 224.087 124.226 222.746 123.824 226.09C123.384 226.184 123.335 225.888 123.306 225.576L122.529 225.834L122.27 225.061C121.272 225.271 121.861 227.053 120.198 226.602L119.422 226.86L118.644 227.116C119.09 227.53 118.952 228.522 119.68 228.656C119.529 230.218 116.94 229.364 116.572 230.71L117.35 230.967L117.09 231.737C119.041 231.515 119.45 232.824 120.198 233.792L120.976 234.048L120.716 234.819C124.108 233.796 125.36 233.807 129.004 233.279C128.629 231.025 130.731 231.224 132.629 231.224L132.37 230.283L133.147 229.683V228.656C134.445 227.375 136.227 226.573 137.291 225.061L136.513 224.462V224.464Z" fill="#F3931F"/>
<path fill-rule="evenodd" clip-rule="evenodd" d="M50.2802 212.737C51.675 211.362 49.6211 210.785 49.2442 209.655C47.5899 208.931 47.9352 212.729 48.7263 212.737L49.5038 212.48L50.2802 212.737Z" fill="#F3931F"/>
<path fill-rule="evenodd" clip-rule="evenodd" d="M50.2802 217.102L49.7622 217.36C48.4035 218.575 49.9789 221.223 50.2802 222.495H49.2442L48.7263 222.752L48.2094 222.495C48.1981 223.705 49.1009 224.007 48.7263 225.576L49.5038 225.834L49.2454 226.604C49.7972 227.597 51.631 227.32 52.3532 228.145L52.87 227.887L53.388 228.145C53.2797 226.667 53.5189 225.536 54.4239 225.061L54.1644 224.12L54.9419 223.521V217.872C54.2626 218.053 54.1271 218.776 53.3891 218.899V217.872L52.4389 218.128L51.8341 217.358C51.2315 217.442 50.9121 217.245 50.7981 216.845L50.2802 217.102Z" fill="#F3931F"/>
<path fill-rule="evenodd" clip-rule="evenodd" d="M40.0291 215.123L40.9465 215.305C40.3394 213.167 39.3904 211.37 36.8028 211.195C36.7892 211.696 36.1697 211.595 35.7668 211.709C35.1135 214.924 38.4492 214.183 39.3926 215.817L40.0291 215.122V215.123Z" fill="#F3931F"/>
<path fill-rule="evenodd" clip-rule="evenodd" d="M44.842 230.627L45.1004 229.686C44.0599 229.859 43.4799 229.58 43.5465 228.658L42.5974 228.914L41.9915 228.145C40.1927 229.554 37.8093 229.101 35.2601 228.657L35.5174 229.427L34.741 229.684V232.765L34.4815 233.279L34.2242 233.792H34.741C34.8076 234.713 34.1068 234.875 34.2242 235.845C36.4744 235.041 38.1253 234.906 40.4387 234.819C40.9815 234.798 42.2104 233.85 41.9915 233.792C43.7203 234.257 43.1831 236.837 45.6172 236.359L46.2909 235.692L47.1711 235.332C46.5742 234.077 44.2428 232.844 45.6172 231.223L44.8408 230.625L44.842 230.627Z" fill="#F3931F"/>
<path fill-rule="evenodd" clip-rule="evenodd" d="M27.7491 223.265L28.5266 223.009V221.469C26.3509 222.767 25.2845 221.275 23.8649 220.442C23.9236 222.346 21.459 223.45 22.829 225.063L23.3469 224.807L23.8638 225.063C24.2836 225.161 24.3806 225.578 24.8997 225.576L25.5046 224.806L26.4547 225.061C26.6804 224.43 27.1171 224.008 28.0075 224.035L27.748 223.264L27.7491 223.265Z" fill="#F3931F"/>
<path fill-rule="evenodd" clip-rule="evenodd" d="M22.0514 227.373L22.3109 226.604C20.7412 227.273 20.9037 229.66 20.239 231.226H22.3109C21.275 232.779 22.4102 234.769 25.4187 234.82L25.1592 234.049L25.9367 233.793C26.9038 231.457 22.1642 230.816 22.8289 227.117L22.0514 227.373Z" fill="#F3931F"/>
<path fill-rule="evenodd" clip-rule="evenodd" d="M27.7491 231.483L29.0435 231.739L27.748 231.483L28.0064 230.199H27.4896L27.748 231.484L27.7491 231.483Z" fill="#F3931F"/>
<path fill-rule="evenodd" clip-rule="evenodd" d="M29.2929 230.456L29.0333 231.739C29.9068 232.279 31.9076 234.322 32.6591 233.28L32.4007 232.509L33.1782 232.253C32.8386 230.878 31.6943 230.3 31.1063 229.172L30.3288 228.915L30.5873 228.145C30.1708 227.873 29.7465 227.609 29.0333 227.631L28.4059 228.327L27.4806 228.145C27.4151 229.065 28.1148 229.227 27.9974 230.198L29.2929 230.456Z" fill="#F3931F"/>
<path fill-rule="evenodd" clip-rule="evenodd" d="M48.4565 230.627L47.6801 231.227C47.5221 232.411 49.1764 231.797 49.234 232.767V233.28L50.0104 233.537L49.234 233.793C51.3566 234.864 53.7129 240.862 56.4844 237.901L55.708 237.645L55.9653 236.874C55.0637 237.027 54.1496 234.883 55.9653 235.334V235.847L56.744 236.104L56.4844 236.874C57.5678 237.169 57.9627 238.147 59.5922 237.901C59.318 237.488 59.0517 237.068 59.0754 236.361C59.5132 235.15 60.3506 237.776 62.1832 236.874C62.2487 235.954 61.549 235.792 61.6652 234.82H62.1832L61.9248 234.049L62.7012 233.793C62.6459 232.478 62.4089 231.344 61.6652 230.711L61.0615 231.482L60.1113 231.226C59.8935 232.368 57.3635 231.627 57.0024 231.226C57.4538 229.733 57.7788 230.648 59.0754 230.712C58.6093 229.804 57.825 229.213 57.5215 228.146C55.875 228.224 55.2442 229.31 53.3777 229.173L53.1193 229.943L52.8598 229.173C52.001 230.033 49.8208 229.582 48.1992 229.686L48.4587 230.627H48.4565Z" fill="#F3931F"/>
<path fill-rule="evenodd" clip-rule="evenodd" d="M104.136 226.09C101.843 225.528 101.56 226.96 99.9939 227.117C99.565 228.568 100.723 228.447 100.511 229.685C99.6801 231.336 98.5754 227.878 97.4029 229.685C97.6681 231.646 99.1057 232.447 99.4748 234.307C107.006 238.04 102.798 228.7 104.136 226.089V226.09Z" fill="#F3931F"/>
<path d="M66.844 55.0714C66.6928 54.7077 66.4107 54.4738 66.0676 54.3003" stroke="#F3931F" stroke-linecap="round"/>
<path d="M77.7212 77.1542C77.4662 75.2897 76.9019 73.3749 75.9077 71.7622" stroke="#F3931F" stroke-linecap="round"/>
<path d="M82.3931 87.6829C81.716 86.415 82.1019 84.7418 81.0987 83.5746" stroke="#F3931F" stroke-linecap="round"/>
<path d="M181.576 84.9434C181.058 85.0542 180.54 85.1526 180.022 85.2858" stroke="#F3931F" stroke-linecap="round"/>
<path d="M43.5466 90.764C43.0873 89.7601 43.6888 88.6902 43.8062 87.683" stroke="#F3931F" stroke-linecap="round"/>
<path d="M74.8831 90.7639V89.7366" stroke="#F3931F" stroke-linecap="round"/>
<path d="M138.067 90.7639H136.513" stroke="#F3931F" stroke-linecap="round"/>
<path d="M54.1543 97.4407C53.0563 96.2869 51.3004 95.724 50.5296 94.3597" stroke="#F3931F" stroke-linecap="round"/>
<path d="M42.7703 97.9544C42.6924 97.5179 42.4498 97.2448 42.2523 96.927" stroke="#F3931F" stroke-linecap="round"/>
<path d="M138.585 98.4681C137.336 97.4485 135.808 96.8632 134.442 95.8997" stroke="#F3931F" stroke-linecap="round"/>
<path d="M125.636 97.9544C124.598 97.8078 123.691 97.1934 122.53 97.4407" stroke="#F3931F" stroke-linecap="round"/>
<path d="M69.7036 102.063C69.3436 100.233 67.7017 99.0925 67.1138 97.4407" stroke="#F3931F" stroke-linecap="round"/>
<path d="M46.3848 101.549C45.7077 100.696 45.8126 99.5346 45.0915 98.7244" stroke="#F3931F" stroke-linecap="round"/>
<path d="M56.7542 100.778C56.4032 100.61 56.0353 100.26 55.7182 100.007" stroke="#F3931F" stroke-linecap="round"/>
<path d="M44.3127 104.117C43.9968 103.767 43.7756 103.642 43.5601 103.528C42.3255 105.249 42.7588 107.955 44.3127 109.253" stroke="#F3931F" stroke-linecap="round"/>
<path d="M155.16 113.878C154.53 113.629 153.937 113.901 153.089 113.878" stroke="#F3931F" stroke-linecap="round"/>
<path d="M155.16 113.875L155.349 114.387C155.167 117.495 152.012 119.543 148.945 119.011" stroke="#F3931F" stroke-linecap="round"/>
<path d="M155.16 113.875C158.562 112.39 162.227 108.318 159.045 104.887" stroke="#F3931F" stroke-linecap="round"/>
<path d="M143.247 111.82C141.725 111.409 140.623 110.497 139.621 109.253" stroke="#F3931F" stroke-linecap="round"/>
<path d="M39.1445 113.875C39.0159 112.683 38.7733 111.505 38.885 110.279" stroke="#F3931F" stroke-linecap="round"/>
<path d="M70.7395 113.362C70.1911 113.392 69.9394 113.127 69.7036 112.848" stroke="#F3931F" stroke-linecap="round"/>
<path d="M104.913 126.2C106.159 123.708 106.198 120.83 105.172 118.24" stroke="#F3931F" stroke-linecap="round"/>
<path d="M111.134 132.876C110.938 131.492 110.615 130.135 110.357 128.768" stroke="#F3931F" stroke-linecap="round"/>
<path d="M111.134 132.876C110.676 133.808 110.538 134.887 109.753 135.614" stroke="#F3931F" stroke-linecap="round"/>
<path d="M111.134 132.876C111.988 132.312 112.908 132.456 113.644 132.289C114.998 130.92 115.244 129.072 115.517 127.296C115.077 126.6 114.81 125.792 114.242 125.173" stroke="#F3931F" stroke-linecap="round"/>
<path d="M85.7593 139.039C84.5529 137.988 82.9832 136.899 81.6167 135.958" stroke="#F3931F" stroke-linecap="round"/>
<path d="M63.4778 139.039C62.6664 138.561 61.7806 137.841 61.4059 136.985" stroke="#F3931F" stroke-linecap="round"/>
<path d="M121.494 137.499C121.839 138.817 121.279 140.069 120.458 141.093" stroke="#F3931F" stroke-linecap="round"/>
<path d="M92.4929 139.554C92.2097 139.491 92.0889 139.268 91.9749 139.04" stroke="#F3931F" stroke-linecap="round"/>
<path d="M152.052 151.365C151.681 151.207 151.027 150.813 150.499 150.594" stroke="#F3931F" stroke-linecap="round"/>
<path d="M132.888 161.123C133.438 160.956 133.752 160.886 134.034 160.753C134.686 159.739 134.693 158.606 134.821 157.422C136.753 156.447 139.462 156.577 140.409 154.229C140.354 153.56 140.122 152.867 139.62 152.394" stroke="#F3931F" stroke-linecap="round"/>
<path d="M139.621 161.123C139.976 162.469 139.015 163.542 137.809 163.949" stroke="#F3931F" stroke-linecap="round"/>
<path d="M116.832 163.178L116.673 162.822C115.272 162.435 114.181 161.547 112.946 160.867" stroke="#F3931F" stroke-linecap="round"/>
<path d="M105.172 167.543C104.915 168.144 104.525 168.614 104.395 169.342" stroke="#F3931F" stroke-linecap="round"/>
<path d="M96.3782 171.652C99.8347 172.634 104.434 179.745 99.7445 181.923" stroke="#F3931F" stroke-linecap="round"/>
<path d="M108.539 180.126C110.259 177.816 113.308 178.8 115.372 176.717C115.481 176.415 115.495 176.057 115.531 175.759" stroke="#F3931F" stroke-linecap="round"/>
<path d="M96.6367 181.153C96.1966 181.251 95.9247 181.354 95.6064 181.392C94.5818 180.986 94.2771 179.813 93.5289 179.099" stroke="#F3931F" stroke-linecap="round"/>
<path d="M143.765 219.67C143.782 218.285 142.453 217.4 142.211 216.076" stroke="#F3931F" stroke-linecap="round"/>
<path d="M156.713 222.751C155.924 223.669 154.394 224 154.124 225.319" stroke="#F3931F" stroke-linecap="round"/>
<path d="M68.6675 229.942C67.7692 231.349 68.0592 233.078 67.3731 234.564" stroke="#F3931F" stroke-linecap="round"/>
<path d="M97.6726 235.591C96.7631 233.911 96.3342 231.74 95.0828 230.454" stroke="#F3931F" stroke-linecap="round"/>
<path d="M50.5398 126.2C48.969 123.859 46.3024 121.199 46.4705 118.351" stroke="#F3931F" stroke-linecap="round"/>
<path d="M46.914 118.497L47.6904 119.267" stroke="#F3931F" stroke-linecap="round"/>
<path d="M45.3486 115.415C44.6817 114.2 43.4246 113.318 42.2408 112.463" stroke="#F3931F" stroke-linecap="round"/>
<path d="M42.241 112.463C42.0615 111.466 42.0277 110.385 41.4646 109.51" stroke="#F3931F" stroke-linecap="round"/>
<path d="M42.241 112.463C41.3845 112.734 41.4228 113.585 41.4646 114.389" stroke="#F3931F" stroke-linecap="round"/>
<path d="M33.1016 97.9543L32.7562 98.9817" stroke="#F3931F" stroke-linecap="round"/>
<path d="M35.2603 119.652C35.3359 119.943 35.4927 120.771 35.6665 121.504" stroke="#F3931F" stroke-linecap="round"/>
<path d="M94.5649 216.589C93.5877 217.073 92.4299 216.589 91.456 217.102" stroke="#F3931F" stroke-linecap="round"/>
<path d="M84.7246 219.157C83.683 219.698 82.4079 219.758 81.6168 220.698" stroke="#F3931F" stroke-linecap="round"/>
<path d="M81.6167 220.698C80.2422 220.401 78.5145 220.174 77.2134 220.698" stroke="#F3931F" stroke-linecap="round"/>
<path d="M77.2134 220.698C76.3253 220.628 75.4349 220.706 74.6235 221.082" stroke="#F3931F" stroke-linecap="round"/>
<path d="M74.6135 221.083C73.5968 220.905 72.3566 220.74 71.5057 221.468" stroke="#F3931F" stroke-linecap="round"/>
<path d="M71.5159 221.468C70.7756 220.996 70.173 220.398 69.4959 219.876" stroke="#F3931F" stroke-linecap="round"/>
<path d="M66.3372 214.791C66.5741 215.281 66.757 215.702 66.854 216.076" stroke="#F3931F" stroke-linecap="round"/>
<path d="M68.6675 219.67C67.8381 220.645 66.3541 220.901 65.9038 222.238" stroke="#F3931F" stroke-linecap="round"/>
<path d="M81.0874 228.145C80.9068 228.244 80.4476 228.577 80.0515 228.914" stroke="#F3931F" stroke-linecap="round"/>
<path d="M131.334 220.44C131.002 220.27 130.703 220.166 130.298 220.013" stroke="#F3931F" stroke-linecap="round"/>
<mask id="mask0_916_22" style="mask-type:luminance" maskUnits="userSpaceOnUse" x="201" y="79" width="17" height="22">
<path d="M217.363 79.5972H201.645V100.512H217.363V79.5972Z" fill="white"/>
</mask>
<g mask="url(#mask0_916_22)">
<path d="M210.926 91.2776C211.442 90.2324 211.538 89.5989 211.875 88.7103" stroke="#F3931F" stroke-linecap="round"/>
</g>
<path d="M206.023 96.5164C205.086 96.8957 204.325 97.6758 203.329 97.9544" stroke="#F3931F" stroke-linecap="round"/>
<path d="M191.934 102.918C191.416 103.027 190.898 103.126 190.38 103.26" stroke="#F3931F" stroke-linecap="round"/>
<path d="M188.956 103.346C187.744 103.124 186.716 103.706 185.719 104.289" stroke="#F3931F" stroke-linecap="round"/>
<path d="M202.811 100.864C203.781 101.322 204.972 101.614 205.574 102.576" stroke="#F3931F" stroke-linecap="round"/>
<path d="M178.986 115.415C178.13 115.628 177.295 115.969 176.396 115.929" stroke="#F3931F" stroke-linecap="round"/>
<path d="M171.512 124.954C171.678 124.426 171.705 123.817 171.734 123.376" stroke="#F3931F" stroke-linecap="round"/>
<path d="M171.734 123.376L171.928 122.991" stroke="#F3931F" stroke-linecap="round"/>
<path d="M171.928 122.991C173.011 122.617 173.486 121.272 172.9 120.295" stroke="#F3931F" stroke-linecap="round"/>
<path d="M172.9 120.295L172.988 120.04C172.827 119.065 172.082 118.327 171.886 117.366C171.11 116.789 170.123 116.434 169.144 116.614" stroke="#F3931F" stroke-linecap="round"/>
<path d="M167.272 115.851C167.58 114.752 168.323 113.865 168.8 112.848" stroke="#F3931F" stroke-linecap="round"/>
<path d="M169.662 111.307C171.101 110.492 170.743 108.55 170.526 107.198" stroke="#F3931F" stroke-linecap="round"/>
<path d="M180.022 93.3324C179.104 93.5932 178.784 94.4862 177.95 94.8723" stroke="#F3931F" stroke-linecap="round"/>
<path d="M177.95 94.8722C175.534 93.8113 173.47 91.7499 170.698 91.7913" stroke="#F3931F" stroke-linecap="round"/>
<path d="M177.95 94.8723C178.042 97.5873 178.101 101.42 174.842 102.319" stroke="#F3931F" stroke-linecap="round"/>
<path d="M163.274 100.008C163.405 97.8884 164.918 95.9064 163.706 93.8461" stroke="#F3931F" stroke-linecap="round"/>
<path d="M157.749 99.4944C158.267 99.4653 158.785 99.7294 159.303 100.008" stroke="#F3931F" stroke-linecap="round"/>
<path d="M157.749 100.778C158.267 100.973 158.785 100.898 159.303 100.865" stroke="#F3931F" stroke-linecap="round"/>
<path d="M163.447 104.63C163.792 104.57 164.137 104.347 164.483 104.117" stroke="#F3931F" stroke-linecap="round"/>
<path d="M169.145 110.793C168.197 110.334 167.196 110.075 166.188 109.824C166.11 109.736 166.078 109.474 166.051 109.205C166.047 109.05 166.042 108.894 166.037 108.74" stroke="#F3931F" stroke-linecap="round"/>
<path d="M166.037 108.739C166.769 108.508 167.374 108.517 167.85 108.482" stroke="#F3931F" stroke-linecap="round"/>
<path d="M166.037 108.74C165.691 108.457 165.346 108.338 165.001 108.226" stroke="#F3931F" stroke-linecap="round"/>
<path d="M165.519 115.415L164.483 114.389" stroke="#F3931F" stroke-linecap="round"/>
<path d="M169.533 120.166C168.867 119.925 168.622 119.87 168.238 119.781" stroke="#F3931F" stroke-linecap="round"/>
<path d="M168.238 119.781C167.981 119.164 167.824 118.874 167.591 118.497" stroke="#F3931F" stroke-linecap="round"/>
<path d="M168.238 119.781H166.814" stroke="#F3931F" stroke-linecap="round"/>
<path d="M171.734 123.376C170.726 122.331 169.177 122.902 168.109 122.092" stroke="#F3931F" stroke-linecap="round"/>
<path d="M171.512 124.953C171.15 125.072 170.645 125.124 170.18 125.173" stroke="#F3931F" stroke-linecap="round"/>
<path d="M170.18 125.173C169.519 124.115 168.157 124.172 167.332 123.376" stroke="#F3931F" stroke-linecap="round"/>
<path d="M170.18 125.173C169.079 125.768 167.661 126.262 166.555 125.43" stroke="#F3931F" stroke-linecap="round"/>
<path d="M171.512 124.953C173.327 125.883 174.778 127.564 176.914 127.912" stroke="#F3931F" stroke-linecap="round"/>
<path d="M168.108 132.876C166.969 132.694 165.903 132.18 164.742 132.106" stroke="#F3931F" stroke-linecap="round"/>
<path d="M170.18 135.188H169.144" stroke="#F3931F" stroke-linecap="round"/>
<path d="M170.698 136.985C169.823 136.937 168.765 137.232 168.108 136.472" stroke="#F3931F" stroke-linecap="round"/>
<path d="M160.339 142.12C160.027 141.957 159.48 141.701 158.859 141.46" stroke="#F3931F" stroke-linecap="round"/>
<path d="M154.125 138.526C154.471 137.558 154.515 136.41 154.125 135.444" stroke="#F3931F" stroke-linecap="round"/>
<path d="M160.599 121.836C160.871 122.723 161.367 123.739 160.857 124.66" stroke="#F3931F" stroke-linecap="round"/>
<path d="M160.857 124.66C160.339 124.3 159.821 124.267 159.303 124.147" stroke="#F3931F" stroke-linecap="round"/>
<path d="M160.857 124.66C160.863 125.189 160.819 125.569 160.771 125.944" stroke="#F3931F" stroke-linecap="round"/>
<path d="M160.771 125.943C159.893 125.992 158.9 125.828 158.267 125.173" stroke="#F3931F" stroke-linecap="round"/>
<path d="M160.771 125.943C160.63 126.931 160.69 128.059 159.821 128.768" stroke="#F3931F" stroke-linecap="round"/>
<path d="M159.821 128.769C159.303 128.409 158.785 128.377 158.267 128.255" stroke="#F3931F" stroke-linecap="round"/>
<path d="M156.196 131.85C155.757 131.102 155.374 130.995 154.642 130.822" stroke="#F3931F" stroke-linecap="round"/>
<path d="M153.089 131.85C153.543 131.927 153.686 132.167 153.865 132.363" stroke="#F3931F" stroke-linecap="round"/>
<path d="M151.535 134.417C150.278 134.399 148.783 134.445 147.909 133.39" stroke="#F3931F" stroke-linecap="round"/>
<path d="M148.945 140.58C142.571 140.158 139.159 133.497 132.888 132.877" stroke="#F3931F" stroke-linecap="round"/>
<path d="M148.945 143.662C148.427 143.302 147.909 143.27 147.391 143.148" stroke="#F3931F" stroke-linecap="round"/>
<path d="M132.629 144.432C131.257 143.755 129.808 143.088 128.226 143.148" stroke="#F3931F" stroke-linecap="round"/>
<path d="M133.838 145.288C127.297 148.256 119.24 143.325 112.688 147.428" stroke="#F3931F" stroke-linecap="round"/>
<path d="M105.949 145.203C105.604 144.921 105.258 144.801 104.913 144.691" stroke="#F3931F" stroke-linecap="round"/>
<path d="M103.359 146.914C101.208 145.932 98.4807 146.348 96.8332 144.381" stroke="#F3931F" stroke-linecap="round"/>
<path d="M96.842 144.378C96.9391 144.206 97.0451 143.935 97.1523 143.66" stroke="#F3931F" stroke-linecap="round"/>
<path d="M97.1446 143.662C97.6626 143.302 98.1805 143.27 98.6985 143.148" stroke="#F3931F" stroke-linecap="round"/>
<path d="M97.1445 143.662C96.9775 143.226 96.8274 142.953 96.6277 142.635" stroke="#F3931F" stroke-linecap="round"/>
<path d="M96.842 144.378C93.9599 144.147 91.9704 141.978 89.3828 141.091" stroke="#F3931F" stroke-linecap="round"/>
<path d="M139.621 145.545C142.853 146.946 145.781 145.522 148.945 145.033" stroke="#F3931F" stroke-linecap="round"/>
<path d="M152.57 141.607C154.295 142.102 155.946 142.834 157.749 143.147" stroke="#F3931F" stroke-linecap="round"/>
<path d="M157.306 140.946C157.776 141.041 158.251 141.125 158.712 141.239" stroke="#F3931F" stroke-linecap="round"/>
<path d="M165.519 147.257C165.001 146.898 164.483 146.865 163.965 146.744" stroke="#F3931F" stroke-linecap="round"/>
<path d="M165.519 148.284C164.827 148.307 163.763 148.319 163.188 148.028" stroke="#F3931F" stroke-linecap="round"/>
<path d="M152.571 148.798C156.193 149.244 159.549 151.24 161.893 153.934" stroke="#F3931F" stroke-linecap="round"/>
<path d="M162.929 157.528C162.396 157.184 162.011 157.018 161.634 156.758" stroke="#F3931F" stroke-linecap="round"/>
<path d="M160.961 159.476C160.717 159.204 160.465 158.938 160.236 158.653" stroke="#F3931F" stroke-linecap="round"/>
<path d="M156.713 160.61C155.799 159.478 154.826 158.35 153.735 157.4" stroke="#F3931F" stroke-linecap="round"/>
<path d="M153.735 157.399C152.695 156.417 152.006 154.869 150.757 154.19" stroke="#F3931F" stroke-linecap="round"/>
<path d="M153.735 157.4C153.076 157.941 152.302 158.336 151.585 158.793C151.334 158.744 150.908 158.607 150.499 158.556" stroke="#F3931F" stroke-linecap="round"/>
<path d="M152.571 167.03C151.567 166.923 151.345 165.691 150.239 165.746" stroke="#F3931F" stroke-linecap="round"/>
<path d="M150.239 165.746C148.936 164.38 149.156 161.619 146.7 161.294" stroke="#F3931F" stroke-linecap="round"/>
<path d="M146.7 161.294C146.375 160.54 146.311 159.725 146.095 158.941" stroke="#F3931F" stroke-linecap="round"/>
<path d="M146.7 161.294C146.434 162.202 145.932 162.945 145.203 163.577C144.438 163.593 143.736 163.879 142.988 163.949" stroke="#F3931F" stroke-linecap="round"/>
<path d="M150.239 165.746C149.969 167.693 151.343 169.067 152.571 170.368" stroke="#F3931F" stroke-linecap="round"/>
<path d="M143.247 173.963C142.586 172.91 141.668 172.09 140.657 171.395" stroke="#F3931F" stroke-linecap="round"/>
<path d="M140.657 171.394C140.839 170.882 140.855 170.368 140.916 169.854" stroke="#F3931F" stroke-linecap="round"/>
<path d="M140.657 171.394C140.07 171.621 139.767 171.903 139.363 172.165" stroke="#F3931F" stroke-linecap="round"/>
<path d="M137.031 172.422C135.338 171.149 134.577 168.908 132.888 167.8" stroke="#F3931F" stroke-linecap="round"/>
<path d="M130.298 169.341C130.327 167.761 128.908 166.994 128.226 165.746" stroke="#F3931F" stroke-linecap="round"/>
<path d="M128.226 165.746C128.512 164.934 128.47 164.417 128.401 163.977C127.939 163.638 127.422 163.287 127.19 162.664" stroke="#F3931F" stroke-linecap="round"/>
<path d="M128.226 165.746C127.229 166.189 126.127 165.983 125.118 165.746" stroke="#F3931F" stroke-linecap="round"/>
<path d="M130.816 173.963C130.648 174.509 130.577 174.821 130.441 175.099C129.429 175.459 128.539 176.054 127.451 176.274" stroke="#F3931F" stroke-linecap="round"/>
<path d="M134.442 172.764L135.478 173.105" stroke="#F3931F" stroke-linecap="round"/>
<path d="M135.737 183.207C135.765 182.124 135.052 181.189 134.96 180.126" stroke="#F3931F" stroke-linecap="round"/>
<path d="M134.183 183.207C134.086 182.446 133.458 181.912 133.406 181.153" stroke="#F3931F" stroke-linecap="round"/>
<path d="M132.37 185.262C132.133 184.729 131.951 184.311 131.852 183.72" stroke="#F3931F" stroke-linecap="round"/>
<path d="M120.458 187.315V186.289" stroke="#F3931F" stroke-linecap="round"/>
<path d="M123.824 183.977C123.488 183.962 122.986 184.094 122.53 184.234" stroke="#F3931F" stroke-linecap="round"/>
<path d="M114.933 185.775C114.772 185.049 114.588 184.449 114.5 183.977" stroke="#F3931F" stroke-linecap="round"/>
<path d="M111.393 187.573C110.564 189.421 107.671 188.363 106.99 190.397" stroke="#F3931F" stroke-linecap="round"/>
<path d="M104.655 190.911C104.6 189.678 104.117 188.515 103.877 187.315" stroke="#F3931F" stroke-linecap="round"/>
<path d="M103.888 191.423L102.852 190.397" stroke="#F3931F" stroke-linecap="round"/>
<path d="M102.852 190.397C102.888 189.674 102.613 189.265 102.334 188.856" stroke="#F3931F" stroke-linecap="round"/>
<path d="M102.852 190.397C100.925 190.753 100.422 188.454 98.7085 188.343" stroke="#F3931F" stroke-linecap="round"/>
<path d="M97.1446 190.397C98.2212 189.591 96.9866 188.762 97.1446 187.829" stroke="#F3931F" stroke-linecap="round"/>
<path d="M96.6367 190.568C91.1185 185.829 90.3387 177.445 85.3452 172.319" stroke="#F3931F" stroke-linecap="round"/>
<path d="M76.4258 164.719C76.0816 164.78 75.7352 165.002 75.3898 165.232" stroke="#F3931F" stroke-linecap="round"/>
<path d="M79.5449 163.178L79.3858 162.822C78.2844 162.273 77.0408 162.589 75.9191 162.149" stroke="#F3931F" stroke-linecap="round"/>
<path d="M72.2821 158.556C72.7978 158.269 72.8768 158.043 73.0608 157.786" stroke="#F3931F" stroke-linecap="round"/>
<path d="M70.2102 151.879C70.0296 151.366 70.0127 150.851 69.9518 150.34" stroke="#F3931F" stroke-linecap="round"/>
<path d="M70.2102 151.879C69.5128 152.125 68.8086 152.018 68.2184 152.088C67.6362 152.734 67.6542 153.8 66.5855 153.934" stroke="#F3931F" stroke-linecap="round"/>
<path d="M58.9558 148.54C59.6972 146.73 57.4594 145.521 56.235 144.689" stroke="#F3931F" stroke-linecap="round"/>
<path d="M58.9558 148.54C57.3398 148.464 56.6977 146.561 55.0705 146.487" stroke="#F3931F" stroke-linecap="round"/>
<path d="M55.0603 146.487C54.2354 144.754 52.8745 143.349 52.0823 141.607" stroke="#F3931F" stroke-linecap="round"/>
<path d="M55.0603 146.487C54.97 146.82 54.9621 147.318 54.9305 147.77" stroke="#F3931F" stroke-linecap="round"/>
<path d="M48.9858 140.58C48.3336 140.371 47.7287 140.114 47.1724 139.809" stroke="#F3931F" stroke-linecap="round"/>
<path d="M43.5466 131.763C45.386 132.735 46.4422 134.76 47.4319 136.471" stroke="#F3931F" stroke-linecap="round"/>
<path d="M43.5466 131.763C43.5443 131.135 43.5127 130.058 43.6685 129.69C44.2485 129.7 44.5453 129.094 44.5825 128.255" stroke="#F3931F" stroke-linecap="round"/>
<path d="M47.4207 128.769C46.8779 128.05 46.3317 127.296 45.3488 126.585" stroke="#F3931F" stroke-linecap="round"/>
<path d="M49.4924 127.228C48.716 126.273 47.811 125.426 47.1633 124.403" stroke="#F3931F" stroke-linecap="round"/>
<path d="M44.5825 119.267C44.727 120.301 45.7516 120.979 45.6185 122.092" stroke="#F3931F" stroke-linecap="round"/>
<path d="M35.2602 119.652C36.251 119.334 36.5421 119.233 36.7644 118.981C36.4879 118.155 36.638 117.257 36.2961 116.443" stroke="#F3931F" stroke-linecap="round"/>
<path d="M35.2603 119.652C33.4773 115.073 32.4323 110.068 32.5835 105.144" stroke="#F3931F" stroke-linecap="round"/>
<path d="M34.828 92.305C36.4056 86.1945 42.1338 81.5165 41.9081 74.8431" stroke="#F3931F" stroke-linecap="round"/>
<path d="M54.6823 71.5047C55.5501 71.6368 56.2238 71.1645 56.7542 70.7347" stroke="#F3931F" stroke-linecap="round"/>
<path d="M53.3881 60.977C53.308 60.6021 53.0462 60.169 52.7212 59.8388C52.2134 58.5675 53.5078 57.6151 53.3881 56.355" stroke="#F3931F" stroke-linecap="round"/>
<path d="M44.7124 57.2537C44.1019 57.4764 43.6832 57.6331 43.2883 57.896" stroke="#F3931F" stroke-linecap="round"/>
<path d="M42.241 63.0318C40.3135 62.8505 37.867 62.4778 36.5444 64.058" stroke="#F3931F" stroke-linecap="round"/>
<path d="M28.9577 66.6264C28.328 63.1548 31.3342 60.5954 33.0754 57.9688" stroke="#F3931F" stroke-linecap="round"/>
<path d="M136.902 86.5269C137.213 87.4401 138.245 87.4412 138.585 88.1966" stroke="#F3931F" stroke-linecap="round"/>
<path d="M147.909 87.1692V85.6282" stroke="#F3931F" stroke-linecap="round"/>
<path d="M156.713 87.683C156.369 87.8229 156.024 87.8844 155.678 87.9393" stroke="#F3931F" stroke-linecap="round"/>
<path d="M159.562 89.8653C158.062 89.8385 156.369 89.8754 154.901 89.4803" stroke="#F3931F" stroke-linecap="round"/>
<path d="M157.491 91.535C157.773 91.5395 158.186 92.1853 158.612 92.6475" stroke="#F3931F" stroke-linecap="round"/>
<path d="M159.303 92.8186C160 92.362 160.321 92.0162 160.742 91.6738C160.819 91.3783 160.795 91.1019 160.766 90.8266C160.351 90.2636 159.927 90.0768 159.563 89.8652" stroke="#F3931F" stroke-linecap="round"/>
<path d="M159.563 89.8653C159.757 88.3187 157.966 87.711 156.713 87.683" stroke="#F3931F" stroke-linecap="round"/>
<path d="M156.713 87.6829C156.301 86.3948 154.693 86.1687 153.606 85.6282" stroke="#F3931F" stroke-linecap="round"/>
<path d="M162.308 79.3633C162.739 79.088 163.218 78.8116 163.551 78.5408" stroke="#F3931F" stroke-linecap="round"/>
<path d="M170.698 72.2759C169.373 73.8046 167.496 74.7324 166.296 76.3842" stroke="#F3931F" stroke-linecap="round"/>
<path d="M145.319 84.6008C142.58 85.2074 139.142 84.5549 136.902 86.5269" stroke="#F3931F" stroke-linecap="round"/>
<path d="M136.902 86.5269C124.212 87.3036 110.462 91.3705 98.1851 86.4844" stroke="#F3931F" stroke-linecap="round"/>
<path d="M86.0945 72.1046C78.8632 60.5943 68.9033 49.2865 54.6733 46.9397" stroke="#F3931F" stroke-linecap="round"/>
<path d="M54.5098 45.5699C54.8054 45.0562 55.1248 44.5425 55.373 44.0288" stroke="#F3931F" stroke-linecap="round"/>
<mask id="mask1_916_22" style="mask-type:luminance" maskUnits="userSpaceOnUse" x="44" y="34" width="20" height="18">
<path d="M63.8445 34.6997H44.2V51.5203H63.8445V34.6997Z" fill="white"/>
</mask>
<g mask="url(#mask1_916_22)">
<path d="M54.3054 41.9013C54.2118 41.2298 54.0188 40.7083 53.7434 40.3312" stroke="#F3931F" stroke-linecap="round"/>
</g>
<mask id="mask2_916_22" style="mask-type:luminance" maskUnits="userSpaceOnUse" x="36" y="34" width="14" height="13">
<path d="M49.9778 34.6997H36.4V46.9363H49.9778V34.6997Z" fill="white"/>
</mask>
<g mask="url(#mask2_916_22)">
<path d="M42.7702 38.8931L43.2803 39.1829C43.462 39.4952 43.488 39.9898 43.5466 40.4352" stroke="#F3931F" stroke-linecap="round"/>
</g>
<path d="M48.2083 44.0289C48.3166 43.6831 48.4791 43.1504 48.7251 42.7452" stroke="#F3931F" stroke-linecap="round"/>
<path d="M50.5398 41.4615C51.7574 41.7469 53.0337 42.0614 54.3123 41.9014" stroke="#F3931F" stroke-linecap="round"/>
<path d="M43.5465 48.6509C43.6232 49.0023 43.6085 49.3391 43.5882 49.676C42.8028 50.2971 42.2634 51.2842 41.2162 51.4767" stroke="#F3931F" stroke-linecap="round"/>
<path d="M47.4207 57.7248C46.6477 58.0427 45.3194 57.5726 44.701 57.2537" stroke="#F3931F" stroke-linecap="round"/>
<path d="M44.7123 57.2537C44.824 56.59 45.4966 55.679 46.396 55.3276" stroke="#F3931F" stroke-linecap="round"/>
<path d="M53.6465 66.6264C53.6262 65.9415 54.0675 65.2566 54.3372 64.5717" stroke="#F3931F" stroke-linecap="round"/>
<path d="M188.235 106.025C187.054 106.397 186.006 107.337 184.682 107.027" stroke="#F3931F" stroke-linecap="round"/>
<path d="M171.928 122.991C171.723 121.553 170.03 121.453 169.533 120.166" stroke="#F3931F" stroke-linecap="round"/>
<path d="M169.533 120.166C170.646 119.936 171.813 119.992 172.9 120.295" stroke="#F3931F" stroke-linecap="round"/>
<path d="M161.893 143.662C161.527 143.693 161.23 143.602 160.937 143.505C160.717 143.098 160.558 142.6 160.338 142.121" stroke="#F3931F" stroke-linecap="round"/>
<path d="M160.339 142.12C161.51 141.884 162.768 141.546 163.965 141.779" stroke="#F3931F" stroke-linecap="round"/>
<path d="M165.519 145.203C164.502 145.031 163.614 144.538 162.49 144.616C162.271 144.423 162.111 144.043 161.893 143.662" stroke="#F3931F" stroke-linecap="round"/>
<path d="M161.893 143.662C162.694 143.197 163.377 143.232 163.965 143.148" stroke="#F3931F" stroke-linecap="round"/>
<path d="M56.9268 151.879C56.6514 151.345 56.1549 151.009 55.7182 150.68" stroke="#F3931F" stroke-linecap="round"/>
<path d="M58.9559 148.54C59.2132 149.456 59.4863 150.194 60.1216 150.851" stroke="#F3931F" stroke-linecap="round"/>
<path d="M70.2102 151.879C71.2743 152.539 71.4504 153.749 71.1739 154.878C70.6785 155.507 70.1221 156.054 69.6933 156.502" stroke="#F3931F" stroke-linecap="round"/>
<path d="M66.0776 154.961C66.6362 155.919 67.9791 156.07 68.6675 157.015" stroke="#F3931F" stroke-linecap="round"/>
<path d="M67.6316 158.384L66.5957 158.727" stroke="#F3931F" stroke-linecap="round"/>
<path d="M96.6366 215.562C97.2877 215.08 97.9942 214.678 98.7085 214.365" stroke="#F3931F" stroke-linecap="round"/>
<path d="M95.0728 219.927C94.1892 220.038 93.1814 220.071 92.484 220.699" stroke="#F3931F" stroke-linecap="round"/>
<path d="M92.4929 220.698C91.7335 220.598 91.4265 220.442 91.1986 220.375" stroke="#F3931F" stroke-linecap="round"/>
<path d="M91.1987 220.377C91.1784 219.39 91.2461 218.395 91.1468 217.412" stroke="#F3931F" stroke-linecap="round"/>
<path d="M91.1987 220.377C90.5815 220.413 89.6471 220.51 89.2984 220.613" stroke="#F3931F" stroke-linecap="round"/>
<path d="M89.2881 220.612C88.7509 220.004 88.6889 219.317 88.5975 218.643" stroke="#F3931F" stroke-linecap="round"/>
<path d="M84.9829 221.725C84.9299 220.866 84.6308 220.041 84.7245 219.157" stroke="#F3931F" stroke-linecap="round"/>
<path d="M89.2881 220.612C89.2204 220.797 88.892 221.629 88.6844 222.238" stroke="#F3931F" stroke-linecap="round"/>
<path d="M92.4929 220.698C92.6463 221.442 93.2332 221.588 94.0457 222.238" stroke="#F3931F" stroke-linecap="round"/>
<path d="M77.2134 220.698C77.2551 221.383 77.1694 222.067 76.955 222.751" stroke="#F3931F" stroke-linecap="round"/>
<path d="M74.6135 221.083V223.729" stroke="#F3931F" stroke-linecap="round"/>
<path d="M87.3032 226.69C86.5821 227.022 85.8069 227.114 85.0248 227.169" stroke="#F3931F" stroke-linecap="round"/>
<path d="M85.0259 227.171C84.4966 226.435 84.052 225.634 83.6796 224.808" stroke="#F3931F" stroke-linecap="round"/>
<path d="M85.0259 227.171C84.3804 228.748 82.392 227.953 81.0898 228.147" stroke="#F3931F" stroke-linecap="round"/>
<path d="M81.0876 228.145C81.0278 226.971 81.3731 225.719 82.1235 224.806" stroke="#F3931F" stroke-linecap="round"/>
<path d="M206.696 64.8291C199.527 68.0242 193.829 73.4341 187.273 77.4115" stroke="#F3931F" stroke-linecap="round"/>
<path d="M209.545 70.4785C207.49 70.8993 205.131 70.5904 203.329 71.7622" stroke="#F3931F" stroke-linecap="round"/>
<path d="M203.329 71.7622C202.967 71.7152 202.67 71.6368 202.376 71.5585C201.998 71.6446 201.359 71.7073 200.73 71.9144C200.534 72.3575 200.771 72.7895 200.881 73.1432C203.512 74.8152 206.523 75.8996 208.819 78.233" stroke="#F3931F" stroke-linecap="round"/>
<mask id="mask3_916_22" style="mask-type:luminance" maskUnits="userSpaceOnUse" x="197" y="68" width="21" height="22">
<path d="M217.363 68.9968H197.022V89.0517H217.363V68.9968Z" fill="white"/>
</mask>
<g mask="url(#mask3_916_22)">
<path d="M208.819 78.233C208.157 79.0243 207.285 79.3667 206.437 79.6364" stroke="#F3931F" stroke-linecap="round"/>
</g>
<path d="M198.15 76.1279C200.685 76.4659 202.808 77.6802 205.142 78.6952" stroke="#F3931F" stroke-linecap="round"/>
<path d="M191.934 79.9789L192.09 79.6196C193.811 79.4405 195.268 78.7859 196.856 78.1815" stroke="#F3931F" stroke-linecap="round"/>
<path d="M191.934 81.5199C193.813 81.4102 195.66 81.1091 197.373 80.2362" stroke="#F3931F" stroke-linecap="round"/>
<path d="M192.452 85.1145C191.559 84.9645 190.717 84.4978 189.862 85.1145" stroke="#F3931F" stroke-linecap="round"/>
<path d="M182.818 100.214C181.734 100.466 180.787 100.846 180.022 101.549" stroke="#F3931F" stroke-linecap="round"/>
<path d="M184.684 100.522C183.968 100.541 183.337 100.382 182.818 100.214" stroke="#F3931F" stroke-linecap="round"/>
<path d="M182.818 100.214C182.99 98.8262 184.347 98.7501 185.201 97.9543" stroke="#F3931F" stroke-linecap="round"/>
<path d="M191.158 93.5886C191.378 92.4482 192.2 91.6368 192.6 90.8378" stroke="#F3931F" stroke-linecap="round"/>
<mask id="mask4_916_22" style="mask-type:luminance" maskUnits="userSpaceOnUse" x="196" y="66" width="22" height="25">
<path d="M217.363 66.1318H196.733V90.4842H217.363V66.1318Z" fill="white"/>
</mask>
<g mask="url(#mask4_916_22)">
<path d="M208.819 78.2342L209.027 78.1815" stroke="#F3931F" stroke-linecap="round"/>
</g>
<path d="M212.135 73.8169C211.04 72.9406 209.388 72.1136 209.545 70.4785" stroke="#F3931F" stroke-linecap="round"/>
<path d="M209.545 70.4785C209.89 70.4471 210.235 70.3363 210.581 70.2211" stroke="#F3931F" stroke-linecap="round"/>
<mask id="mask5_916_22" style="mask-type:luminance" maskUnits="userSpaceOnUse" x="205" y="56" width="13" height="18">
<path d="M217.363 56.9639H205.689V73.0078H217.363V56.9639Z" fill="white"/>
</mask>
<g mask="url(#mask5_916_22)">
<path d="M216.279 64.8291C215.393 64.791 214.554 65.119 213.689 65.2566" stroke="#F3931F" stroke-linecap="round"/>
</g>
<mask id="mask6_916_22" style="mask-type:luminance" maskUnits="userSpaceOnUse" x="200" y="58" width="18" height="14">
<path d="M217.363 58.6829H200.489V71.5753H217.363V58.6829Z" fill="white"/>
</mask>
<g mask="url(#mask6_916_22)">
<path d="M211.617 65.2566C210.044 64.0726 208.165 66.1374 206.696 64.8291" stroke="#F3931F" stroke-linecap="round"/>
</g>
<mask id="mask7_916_22" style="mask-type:luminance" maskUnits="userSpaceOnUse" x="192" y="44" width="26" height="30">
<path d="M217.363 44.9309H192.689V73.2943H217.363V44.9309Z" fill="white"/>
</mask>
<g mask="url(#mask7_916_22)">
<path d="M206.696 64.8292C211.431 60.1971 208.388 52.6149 201.258 53.6154" stroke="#F3931F" stroke-linecap="round"/>
</g>
<path d="M196.596 48.3945C185.963 49.6256 180.478 60.5875 174.324 68.1674" stroke="#F3931F" stroke-linecap="round"/>
<path d="M192.452 64.5717C194.244 62.1353 194.138 58.4097 197.286 57.0399" stroke="#F3931F" stroke-linecap="round"/>
<mask id="mask8_916_22" style="mask-type:luminance" maskUnits="userSpaceOnUse" x="199" y="67" width="19" height="21">
<path d="M217.363 67.8508H199.911V87.6192H217.363V67.8508Z" fill="white"/>
</mask>
<g mask="url(#mask8_916_22)">
<path d="M211.543 77.2639C210.729 77.7653 209.832 77.988 209.415 78.1805" stroke="#F3931F" stroke-linecap="round"/>
</g>
<path d="M203.329 71.7622C205.789 73.3212 208.67 73.5193 211.099 75.3569" stroke="#F3931F" stroke-linecap="round"/>
<path d="M186.237 62.5181C185.222 61.5915 186.148 60.2743 186.755 59.436" stroke="#F3931F" stroke-linecap="round"/>
<path d="M186.237 62.5181L186.24 63.0273C185.586 63.9573 184.497 64.8918 183.238 64.8358C180.861 66.5078 183.15 69.6369 181.058 71.2484" stroke="#F3931F" stroke-linecap="round"/>
<path d="M186.237 62.5181C187.478 62.1869 187.799 60.6324 188.826 59.9497" stroke="#F3931F" stroke-linecap="round"/>
<path d="M179.504 79.9789C177.182 80.9425 175.529 83.1651 172.9 83.7022" stroke="#F3931F" stroke-linecap="round"/>
<path d="M172.9 83.7022C172.456 83.099 172.327 82.5775 172.08 82.0336" stroke="#F3931F" stroke-linecap="round"/>
<path d="M172.9 83.7021C172.594 85.2219 171.477 87.1748 169.662 86.9118" stroke="#F3931F" stroke-linecap="round"/>
<path d="M87.8313 90.7639C87.5481 90.7035 87.4273 90.4808 87.3133 90.2502" stroke="#F3931F" stroke-linecap="round"/>
<path d="M79.5449 93.3324C79.2696 93.0907 79.1443 92.7023 79.027 92.3051" stroke="#F3931F" stroke-linecap="round"/>
<path d="M130.816 93.3324H129.78" stroke="#F3931F" stroke-linecap="round"/>
<path d="M142.729 98.4681C140.136 97.1005 137.737 94.5008 134.442 94.3597" stroke="#F3931F" stroke-linecap="round"/>
<path d="M123.047 106.171C115.445 101.265 106.824 97.1061 97.6669 94.8723" stroke="#F3931F" stroke-linecap="round"/>
<path d="M72.8113 100.522C72.8835 100.828 72.8722 101.089 72.8575 101.349C72.6499 101.607 72.4761 101.689 72.3035 101.764C71.1592 101.314 70.7552 99.9487 70.2203 98.9818" stroke="#F3931F" stroke-linecap="round"/>
<path d="M177.95 104.63C177.026 105.569 176.159 106.811 175.878 108.226" stroke="#F3931F" stroke-linecap="round"/>
<path d="M69.7036 108.739C68.3652 107.708 66.9558 106.53 66.0778 105.144" stroke="#F3931F" stroke-linecap="round"/>
<path d="M52.0938 113.875L51.7383 113.721C50.9348 111.175 49.2252 108.923 49.2443 106.171" stroke="#F3931F" stroke-linecap="round"/>
<path d="M63.4778 123.633C62.7341 122.62 61.9318 121.687 61.4059 120.551" stroke="#F3931F" stroke-linecap="round"/>
<path d="M52.6116 121.578C52.3272 121.517 52.2065 121.294 52.0936 121.065" stroke="#F3931F" stroke-linecap="round"/>
<path d="M59.8621 122.092C59.5788 122.03 59.4581 121.808 59.3441 121.578" stroke="#F3931F" stroke-linecap="round"/>
<path d="M139.621 127.741C139.276 128.022 138.931 128.142 138.585 128.255" stroke="#F3931F" stroke-linecap="round"/>
<path d="M139.621 127.741C140.573 127.7 141.388 127.014 142.321 126.859C142.959 125.461 143.396 123.734 142.47 122.349" stroke="#F3931F" stroke-linecap="round"/>
<path d="M139.621 127.741L138.585 126.714" stroke="#F3931F" stroke-linecap="round"/>
<path d="M98.1806 123.119L98.5349 123.279C98.6399 123.689 98.8791 123.966 99.1071 124.254C99.3779 126.133 99.1962 128.609 97.6626 129.796" stroke="#F3931F" stroke-linecap="round"/>
<path d="M72.282 126.714C70.6378 126.498 69.9596 124.791 68.6573 124.147" stroke="#F3931F" stroke-linecap="round"/>
<path d="M65.0417 129.282C64.8262 128.812 64.4989 128.451 64.0058 128.255" stroke="#F3931F" stroke-linecap="round"/>
<path d="M74.354 135.444C72.5868 135.13 70.7813 134.175 69.6934 132.877" stroke="#F3931F" stroke-linecap="round"/>
<path d="M52.3521 135.702C52.5936 136.148 52.966 136.462 53.1296 136.985" stroke="#F3931F" stroke-linecap="round"/>
<path d="M64.5239 136.985C65.4729 137.273 65.6478 138.31 66.0767 139.039" stroke="#F3931F" stroke-linecap="round"/>
<path d="M60.8979 144.946C59.7198 145.273 59.1736 144.185 58.3081 143.662" stroke="#F3931F" stroke-linecap="round"/>
<path d="M62.9697 147.257C62.568 146.265 61.5806 145.737 60.8979 144.947" stroke="#F3931F" stroke-linecap="round"/>
<path d="M60.8979 144.946C60.7591 143.868 59.9083 142.863 58.8261 142.635" stroke="#F3931F" stroke-linecap="round"/>
<path d="M157.749 144.689C157.374 144.656 157.116 144.752 156.864 144.853C156.732 145.284 156.984 145.518 157.231 145.716" stroke="#F3931F" stroke-linecap="round"/>
<path d="M137.031 150.339C136.514 150.154 135.996 149.937 135.478 149.825" stroke="#F3931F" stroke-linecap="round"/>
<path d="M91.9751 153.42C93.1374 153.114 95.4203 154.072 94.565 155.475" stroke="#F3931F" stroke-linecap="round"/>
<path d="M103.888 161.123C103.514 162.311 102.978 163.575 101.816 164.206" stroke="#F3931F" stroke-linecap="round"/>
<path d="M108.539 163.691C109.402 164.827 109.213 166.522 108.28 167.543" stroke="#F3931F" stroke-linecap="round"/>
<path d="M94.3064 174.219L93.8674 174.501C92.1059 174.502 90.7957 172.681 89.9031 171.395" stroke="#F3931F" stroke-linecap="round"/>
<path d="M71.9481 207.687C72.9592 210.696 74.7456 213.427 75.9756 216.37C71.3364 216.015 69.497 208.449 66.5957 204.777" stroke="#F3931F" stroke-linecap="round"/>
<path d="M144.024 208.629C144.675 210.412 144.563 212.746 146.088 214.014C147.057 213.007 146.576 211.195 146.355 209.913" stroke="#F3931F" stroke-linecap="round"/>
<path d="M176.914 223.779C175.106 224.848 173.012 226.698 171.038 226.893C170.943 226.105 171.824 225.084 171.104 224.501C170.651 224.533 170.222 224.713 169.797 224.944C169.326 225.368 168.829 225.497 168.109 225.834" stroke="#F3931F" stroke-linecap="round"/>
<path d="M165.519 223.523C164.972 223.809 164.277 224.111 163.447 224.806" stroke="#F3931F" stroke-linecap="round"/>
<path d="M166.641 217.873C168.623 217.875 169.855 216.258 171.216 215.048" stroke="#F3931F" stroke-linecap="round"/>
<path d="M166.641 217.873C166.351 216.135 167.48 214.858 167.936 213.336" stroke="#F3931F" stroke-linecap="round"/>
<path d="M166.642 217.873C165.3 222.662 158.973 220.581 158.267 225.834" stroke="#F3931F" stroke-linecap="round"/>
<mask id="mask9_916_22" style="mask-type:luminance" maskUnits="userSpaceOnUse" x="68" y="223" width="28" height="18">
<path d="M95.6223 223.993H68.7556V240.877H95.6223V223.993Z" fill="white"/>
</mask>
<g mask="url(#mask9_916_22)">
<path d="M88.1768 231.312C84.446 233.348 80.4851 239.198 76.1777 237.901" stroke="#F3931F" stroke-linecap="round"/>
</g>
<mask id="mask10_916_22" style="mask-type:luminance" maskUnits="userSpaceOnUse" x="69" y="226" width="14" height="15">
<path d="M82.6223 226.858H69.0445V240.877H82.6223V226.858Z" fill="white"/>
</mask>
<g mask="url(#mask10_916_22)">
<path d="M76.1776 237.902C77.2914 236.135 76.866 233.509 74.8833 232.51" stroke="#F3931F" stroke-linecap="round"/>
</g>
<path d="M146.095 153.549C145.494 152.817 144.498 153.103 143.765 152.649" stroke="#F3931F" stroke-linecap="round"/>
<path d="M145.319 155.731C145.792 155.468 146.197 154.859 146.45 154.43C146.328 153.951 146.18 153.731 146.095 153.55" stroke="#F3931F" stroke-linecap="round"/>
<path d="M146.095 153.549C146.139 151.966 144.683 150.673 143.247 150.339" stroke="#F3931F" stroke-linecap="round"/>
<path d="M141.175 223.779C141.42 222.786 140.645 222.112 140.395 221.237C140.107 220.931 139.701 220.955 139.363 221.027C139.12 221.426 139.124 222.125 139.183 222.678L139.363 223.009" stroke="#F3931F" stroke-linecap="round"/>
<path d="M137.55 224.292C137.204 224.314 136.859 224.388 136.514 224.464" stroke="#F3931F" stroke-linecap="round"/>
<path d="M122.529 225.834C122.766 225.301 122.948 224.882 123.047 224.292" stroke="#F3931F" stroke-linecap="round"/>
<path d="M118.904 225.834C119.58 224.977 119.745 224.12 120.198 223.265" stroke="#F3931F" stroke-linecap="round"/>
<path d="M118.904 225.834C118.618 225.839 118.525 225.839 118.44 225.838C118.144 225.609 118.003 224.908 118.126 224.292" stroke="#F3931F" stroke-linecap="round"/>
<path d="M118.904 225.834C119.112 226.175 119.268 226.519 119.422 226.861" stroke="#F3931F" stroke-linecap="round"/>
<mask id="mask11_916_22" style="mask-type:luminance" maskUnits="userSpaceOnUse" x="100" y="223" width="24" height="18">
<path d="M123.933 223.706H100.822V240.877H123.933V223.706Z" fill="white"/>
</mask>
<g mask="url(#mask11_916_22)">
<path d="M117.35 230.969C114.011 232.317 111.451 235.695 107.766 235.371C107.062 233.709 107.935 231.924 107.768 230.198" stroke="#F3931F" stroke-linecap="round"/>
</g>
<mask id="mask12_916_22" style="mask-type:luminance" maskUnits="userSpaceOnUse" x="113" y="227" width="15" height="14">
<path d="M127.689 227.431H113.245V240.877H127.689V227.431Z" fill="white"/>
</mask>
<g mask="url(#mask12_916_22)">
<path d="M120.976 234.05C120.438 234.407 120.234 234.618 119.94 234.821" stroke="#F3931F" stroke-linecap="round"/>
</g>
<path d="M132.37 230.284C133.493 230.77 134.714 231.716 135.996 231.316C136.732 230.779 136.926 230.091 137.204 229.427" stroke="#F3931F" stroke-linecap="round"/>
<path d="M151.535 231.739C150.226 231.924 149.001 231.454 147.909 230.798" stroke="#F3931F" stroke-linecap="round"/>
<path d="M153.089 221.212C154.26 220.117 154.842 218.471 155.678 217.102" stroke="#F3931F" stroke-linecap="round"/>
<path d="M151.535 218.643C152.254 218.32 152.485 217.475 152.829 216.845" stroke="#F3931F" stroke-linecap="round"/>
<path d="M151.275 214.791C151.022 216.203 150.094 217.411 150.239 218.9" stroke="#F3931F" stroke-linecap="round"/>
<path d="M148.427 219.328C147.916 218.906 147.707 218.526 147.391 218.13" stroke="#F3931F" stroke-linecap="round"/>
<path d="M146.873 222.238C145.665 219.569 144.394 216.982 143.765 214.021" stroke="#F3931F" stroke-linecap="round"/>
<path d="M48.7161 222.751C48.206 221.222 46.6656 220.266 46.3846 218.643" stroke="#F3931F" stroke-linecap="round"/>
<path d="M46.9141 225.834C44.6865 222.156 43.0005 218.272 40.0326 215.121" stroke="#F3931F" stroke-linecap="round"/>
<path d="M46.9138 225.834C47.2987 227.496 45.8113 228.682 45.8779 230.284" stroke="#F3931F" stroke-linecap="round"/>
<path d="M45.8779 230.284L44.842 230.626" stroke="#F3931F" stroke-linecap="round"/>
<path d="M42.5977 228.915C43.8142 227.113 43.4113 222.364 40.3938 223.483C40.2031 223.972 40.2087 224.665 40.1805 225.32" stroke="#F3931F" stroke-linecap="round"/>
<path d="M34.6012 227.631C35.5593 226.85 35.7771 225.72 36.5444 224.806" stroke="#F3931F" stroke-linecap="round"/>
<path d="M34.6013 227.631C33.4638 227.425 32.4538 228.692 31.3649 227.887" stroke="#F3931F" stroke-linecap="round"/>
<path d="M31.3647 227.887C30.7779 226.016 29.2872 224.432 27.7401 223.265" stroke="#F3931F" stroke-linecap="round"/>
<path d="M23.3469 224.806C23.0648 225.726 22.6394 226.609 22.0514 227.373" stroke="#F3931F" stroke-linecap="round"/>
<mask id="mask13_916_22" style="mask-type:luminance" maskUnits="userSpaceOnUse" x="36" y="225" width="22" height="16">
<path d="M57.489 225.712H36.1112V240.877H57.489V225.712Z" fill="white"/>
</mask>
<g mask="url(#mask13_916_22)">
<path d="M47.3564 236.255C46.8486 236.062 46.5654 235.879 46.2912 235.698" stroke="#F3931F" stroke-linecap="round"/>
</g>
<path d="M45.8781 230.284C46.7098 230.588 47.6329 230.309 48.4668 230.626" stroke="#F3931F" stroke-linecap="round"/>
<path d="M48.9858 233.537H50.0217" stroke="#F3931F" stroke-linecap="round"/>
<mask id="mask14_916_22" style="mask-type:luminance" maskUnits="userSpaceOnUse" x="50" y="230" width="13" height="11">
<path d="M62.1111 230.869H50.5555V240.877H62.1111V230.869Z" fill="white"/>
</mask>
<g mask="url(#mask14_916_22)">
<path d="M55.7182 237.645C56.0511 237.132 56.3502 236.619 56.7542 236.105" stroke="#F3931F" stroke-linecap="round"/>
</g>
<mask id="mask15_916_22" style="mask-type:luminance" maskUnits="userSpaceOnUse" x="53" y="220" width="21" height="21">
<path d="M73.9556 220.268H53.1556V240.877H73.9556V220.268Z" fill="white"/>
</mask>
<g mask="url(#mask15_916_22)">
<path d="M61.9339 234.05C62.8232 234.31 63.709 235.414 64.6829 234.744C65.4852 232.937 64.6874 230.805 65.3013 228.914" stroke="#F3931F" stroke-linecap="round"/>
</g>
<path d="M61.0706 231.483C60.7941 230.294 60.7941 229.043 60.3788 227.888" stroke="#F3931F" stroke-linecap="round"/>
<path d="M53.1295 229.942C53.1859 229.199 52.9681 228.359 52.8699 227.887" stroke="#F3931F" stroke-linecap="round"/>
<path d="M54.1543 224.121C54.9058 224.267 55.4644 224.43 55.8402 224.522C56.8028 223.186 57.4404 221.364 57.5205 219.672" stroke="#F3931F" stroke-linecap="round"/>
<path d="M52.439 218.129C52.9446 216.802 52.0858 215.16 53.1296 214.021" stroke="#F3931F" stroke-linecap="round"/>
<path d="M50.2803 217.102C50.3254 215.515 49.0807 214.17 49.5028 212.48" stroke="#F3931F" stroke-linecap="round"/>
<path d="M28.4082 228.326C27.3463 227.251 26.2393 226.223 25.4979 224.805" stroke="#F3931F" stroke-linecap="round"/>
<path d="M31.3647 227.887L30.3288 228.915" stroke="#F3931F" stroke-linecap="round"/>
<mask id="mask16_916_22" style="mask-type:luminance" maskUnits="userSpaceOnUse" x="17" y="219" width="23" height="22">
<path d="M39.8667 219.695H17.0445V240.877H39.8667V219.695Z" fill="white"/>
</mask>
<g mask="url(#mask16_916_22)">
<path d="M29.293 230.456L27.7402 231.483" stroke="#F3931F" stroke-linecap="round"/>
</g>
<path d="M27.749 231.483C26.9907 230.465 26.1579 229.63 25.4187 228.658" stroke="#F3931F" stroke-linecap="round"/>
<mask id="mask17_916_22" style="mask-type:luminance" maskUnits="userSpaceOnUse" x="16" y="222" width="21" height="19">
<path d="M36.9778 222.847H16.6122V240.877H36.9778V222.847Z" fill="white"/>
</mask>
<g mask="url(#mask17_916_22)">
<path d="M27.7491 231.483C27.9522 232.461 28.6067 233.486 28.1046 234.49C27.1736 235.202 26.0823 234.335 25.1593 234.051" stroke="#F3931F" stroke-linecap="round"/>
</g>
<path d="M46.914 225.834C47.7773 226.05 48.6405 226.116 49.5027 225.834" stroke="#F3931F" stroke-linecap="round"/>
<path d="M34.4727 233.28C33.7674 233.06 33.0733 232.814 32.4008 232.509" stroke="#F3931F" stroke-linecap="round"/>
<path d="M34.6012 227.631C34.7354 227.977 34.9025 228.615 35.5073 229.428" stroke="#F3931F" stroke-linecap="round"/>
</svg>
