<svg width="43" height="56" viewBox="0 0 43 56" fill="none" xmlns="http://www.w3.org/2000/svg">
<g clip-path="url(#clip0_970_18)">
<path d="M30.1293 37.4944L29.863 36.9428L29.2842 35.7443L28.5588 36.8602L26.4748 40.0657L26.3525 40.2538L26.3536 40.4781L26.3956 49.1485L25.2992 54.3258L24.3648 55.1184C24.2708 55.0831 24.1784 55.0524 24.0928 55.0254C23.8066 54.935 23.4785 54.8512 23.1766 54.7741L23.1745 54.7736C22.8628 54.694 22.5773 54.6211 22.3373 54.5463C22.264 54.5234 22.1991 54.5016 22.1426 54.481C22.0874 54.2266 22.0436 53.9462 21.9949 53.6345L21.9947 53.633C21.9487 53.3389 21.898 53.0145 21.8256 52.6941C21.9914 52.4904 22.1166 52.306 22.2136 52.1294C22.3612 51.861 22.4275 51.6385 22.477 51.4726L22.4773 51.4716C22.5243 51.3141 22.5533 51.2186 22.6196 51.0931C22.6878 50.9641 22.8099 50.7787 23.0591 50.4999L23.1625 50.3843L23.2115 50.2372L23.7115 48.7372L23.8581 48.2974L23.5303 47.9697L23.0303 47.4697L22.8745 47.3138L22.6591 47.2671C22.3963 47.21 22.2601 47.1603 22.1841 47.1255C22.1141 47.0936 22.0765 47.0672 21.9845 47.0027C21.8805 46.9297 21.737 46.8305 21.5157 46.7358C21.3448 46.6627 21.1431 46.5985 20.889 46.5393C19.2469 45.1796 17.5956 43.8322 15.9349 42.4969L15.9318 42.4944L15.6607 42.2788L15.251 41.9529L14.8038 42.2252L14.5144 42.4013L14.5131 42.4022L13.6535 42.923C13.0096 42.3166 12.3628 41.7114 11.7088 41.1123L11.309 40.746L10.8359 41.0108C9.6776 41.659 7.70675 42.7946 6.42294 43.5373L6.27904 43.5139L6.52103 42.9971L6.52645 42.9856L6.53147 42.9738L6.55761 42.9127L6.61794 42.7715V42.6179V42.5664V42.5483L6.61707 42.5302C6.56073 41.3645 6.46115 39.8125 6.37007 38.4845L6.99501 38.3448L6.84382 37.6209C6.49702 35.9604 6.14442 34.2992 5.78343 32.6428C6.13427 32.2447 6.64422 31.6652 7.07139 31.1797C7.49105 30.7028 7.83081 30.3167 7.86131 30.2826L8.30149 29.7898L7.86803 29.291C6.88639 28.1615 5.89366 27.0403 4.90307 25.9216C4.63114 25.6144 4.35937 25.3075 4.08804 25.0006L6.03304 22.3731L6.03316 22.373L6.42841 21.8387L7.24767 20.7313L5.87294 20.6441L5.21432 20.6024L5.21311 20.6023L3.24031 20.474L2.07424 18.8651C2.25212 17.82 2.4217 16.7719 2.59063 15.7277C2.68497 15.1446 2.7791 14.5627 2.87438 13.9833L2.8744 13.9833L2.87534 13.9773L2.8884 13.8936L2.96571 13.3986L2.53792 13.1376L2.46933 13.0958L2.46786 13.0949C2.0029 12.8128 1.59357 12.5021 1.14984 12.1653L1.11981 12.1426C0.990814 12.0447 0.858863 11.9447 0.722912 11.844C1.60943 11.3647 2.40447 10.8695 3.30921 10.3041L3.30925 10.3041L3.31792 10.2985L3.40285 10.2438L3.56971 10.1363L3.66155 9.96038L3.72035 9.84774L3.72037 9.84775L3.72339 9.84185C4.48627 8.34828 5.27969 6.69114 5.9205 5.13419C6.44932 3.86875 6.95296 2.58167 7.3744 1.25426L10.5816 3.69718L10.1425 6.83825L9.94809 8.22931L11.2122 7.61707L15.7777 5.40591L22.1637 7.49089L22.3388 7.54805L22.5204 7.51763L26.0979 6.91842L33.963 13.5562L34.0857 13.6598L34.2402 13.704L40.0189 15.3587L40.9035 18.2548L40.9443 22.2876L40.2112 26.1195L36.5852 29.4608L33.4036 31.8621L33.1054 32.0871V32.4607V33.0934L30.1293 37.4944Z" stroke="#FFF3E9" stroke-width="1.5"/>
</g>
<defs>
<clipPath id="clip0_970_18">
<rect width="42.4516" height="56" fill="white"/>
</clipPath>
</defs>
</svg>
