<svg width="847" height="627" viewBox="0 0 847 627" fill="none" xmlns="http://www.w3.org/2000/svg">
<g clip-path="url(#clip0_904_57)">
<path d="M847 91.8029C837.454 110.704 830.03 131.117 817.756 148.052C663.963 361.86 460.471 499.459 197.128 536.051C163.945 540.739 124.55 501.727 90.4578 470.427C383.195 415.539 626.083 280.51 846.848 91.8029H847Z" fill="#F3931F"/>
<path d="M844.879 0.624695C840.485 8.6387 837.757 18.6184 831.545 24.6667C640.932 206.872 422.742 334.189 155.006 362.767C142.429 364.128 129.853 364.582 117.277 366.396C23.1827 380.005 20.7584 378.341 -0.151489 277.486C322.436 311.961 593.203 195.683 844.879 0.624695Z" fill="#F3931F"/>
<path d="M283.95 610.597C515.776 537.412 682.146 401.476 818.666 220.934C771.543 503.239 535.019 682.874 283.95 610.597Z" fill="#F3931F"/>
</g>
<defs>
<clipPath id="clip0_904_57">
<rect width="847" height="626" fill="white" transform="translate(0 0.624695)"/>
</clipPath>
</defs>
</svg>
