<svg width="101" height="16" viewBox="0 0 101 16" fill="none" xmlns="http://www.w3.org/2000/svg">
<path d="M3.88337 14.6667L4.96671 9.98333L1.33337 6.83333L6.13337 6.41667L8.00004 2L9.86671 6.41667L14.6667 6.83333L11.0334 9.98333L12.1167 14.6667L8.00004 12.1833L3.88337 14.6667Z" fill="#FFF3E9"/>
<path d="M24.8834 14.6667L25.9667 9.98333L22.3334 6.83333L27.1334 6.41667L29 2L30.8667 6.41667L35.6667 6.83333L32.0334 9.98333L33.1167 14.6667L29 12.1833L24.8834 14.6667Z" fill="#FFF3E9"/>
<path d="M46.8834 14.6667L47.9667 9.98333L44.3334 6.83333L49.1334 6.41667L51 2L52.8667 6.41667L57.6667 6.83333L54.0334 9.98333L55.1167 14.6667L51 12.1833L46.8834 14.6667Z" fill="#FFF3E9"/>
<path d="M67.8834 14.6667L68.9667 9.98333L65.3334 6.83333L70.1334 6.41667L72 2L73.8667 6.41667L78.6667 6.83333L75.0334 9.98333L76.1167 14.6667L72 12.1833L67.8834 14.6667Z" fill="#FFF3E9"/>
<path d="M88.8834 14.6667L89.9667 9.98333L86.3334 6.83333L91.1334 6.41667L93 2L94.8667 6.41667L99.6667 6.83333L96.0334 9.98333L97.1167 14.6667L93 12.1833L88.8834 14.6667Z" fill="#FFF3E9"/>
</svg>
