<svg width="16" height="16" viewBox="0 0 16 16" fill="none" xmlns="http://www.w3.org/2000/svg">
<path d="M5.91666 1.93356L11.5333 7.53356C11.6 7.60023 11.6473 7.67245 11.6753 7.75023C11.7033 7.82801 11.7171 7.91134 11.7167 8.00023C11.7167 8.08912 11.7029 8.17245 11.6753 8.25023C11.6478 8.32801 11.6004 8.40023 11.5333 8.46689L5.91666 14.0836C5.76111 14.2391 5.56666 14.3169 5.33333 14.3169C5.1 14.3169 4.9 14.2336 4.73333 14.0669C4.56666 13.9002 4.48333 13.7058 4.48333 13.4836C4.48333 13.2613 4.56666 13.0669 4.73333 12.9002L9.63333 8.00023L4.73333 3.10023C4.57778 2.94467 4.5 2.75289 4.5 2.52489C4.5 2.29689 4.58333 2.09978 4.75 1.93356C4.91666 1.76689 5.11111 1.68356 5.33333 1.68356C5.55555 1.68356 5.75 1.76689 5.91666 1.93356Z" fill="#2B9E56"/>
</svg>
