<svg width="16" height="16" viewBox="0 0 16 16" fill="none" xmlns="http://www.w3.org/2000/svg">
<path d="M12.7 3.27354C12.0888 2.65615 11.3608 2.16665 10.5585 1.83357C9.75609 1.50049 8.89544 1.33051 8.0267 1.33354C4.3867 1.33354 1.42003 4.3002 1.42003 7.9402C1.42003 9.10687 1.7267 10.2402 2.30003 11.2402L1.3667 14.6669L4.8667 13.7469C5.83337 14.2735 6.92003 14.5535 8.0267 14.5535C11.6667 14.5535 14.6334 11.5869 14.6334 7.94687C14.6334 6.1802 13.9467 4.5202 12.7 3.27354ZM8.0267 13.4335C7.04003 13.4335 6.07337 13.1669 5.2267 12.6669L5.0267 12.5469L2.9467 13.0935L3.50003 11.0669L3.3667 10.8602C2.81853 9.98485 2.52746 8.97303 2.5267 7.9402C2.5267 4.91354 4.99337 2.44687 8.02003 2.44687C9.4867 2.44687 10.8667 3.0202 11.9 4.0602C12.4117 4.56951 12.8172 5.17531 13.093 5.84249C13.3688 6.50966 13.5094 7.22494 13.5067 7.94687C13.52 10.9735 11.0534 13.4335 8.0267 13.4335ZM11.04 9.32687C10.8734 9.24687 10.06 8.84687 9.91337 8.78687C9.76003 8.73354 9.65337 8.70687 9.54003 8.86687C9.4267 9.03354 9.11337 9.40687 9.02003 9.51354C8.9267 9.62687 8.8267 9.6402 8.66003 9.55354C8.49337 9.47354 7.96003 9.29354 7.33337 8.73354C6.84003 8.29354 6.51337 7.75354 6.41337 7.58687C6.32003 7.4202 6.40003 7.33354 6.4867 7.24687C6.56003 7.17354 6.65337 7.05354 6.73337 6.9602C6.81337 6.86687 6.8467 6.79354 6.90003 6.68687C6.95337 6.57354 6.9267 6.4802 6.8867 6.4002C6.8467 6.3202 6.51337 5.50687 6.38003 5.17354C6.2467 4.85354 6.1067 4.89354 6.0067 4.88687H5.6867C5.57337 4.88687 5.40003 4.92687 5.2467 5.09354C5.10003 5.2602 4.67337 5.6602 4.67337 6.47354C4.67337 7.28687 5.2667 8.07354 5.3467 8.1802C5.4267 8.29354 6.51337 9.9602 8.1667 10.6735C8.56003 10.8469 8.8667 10.9469 9.1067 11.0202C9.50003 11.1469 9.86003 11.1269 10.1467 11.0869C10.4667 11.0402 11.1267 10.6869 11.26 10.3002C11.4 9.91354 11.4 9.58687 11.3534 9.51354C11.3067 9.4402 11.2067 9.40687 11.04 9.32687Z" fill="#F9F9F9"/>
</svg>
