<svg width="370" height="316" viewBox="0 0 370 316" fill="none" xmlns="http://www.w3.org/2000/svg">
<g clip-path="url(#clip0_945_1146)">
<path d="M426 46.6904C421.199 56.2013 417.465 66.473 411.292 74.9948C333.941 182.582 231.595 251.821 99.1459 270.234C82.4565 272.593 62.6425 252.962 45.4958 237.212C192.729 209.593 314.889 141.647 425.924 46.6904H426Z" fill="#F3931F"/>
<path d="M424.933 0.810059C422.723 4.84267 421.352 9.8644 418.227 12.9079C322.358 104.593 212.619 168.658 77.9606 183.038C71.6354 183.723 65.3101 183.951 58.9849 184.864C11.66 191.712 10.4407 190.875 -0.0759277 140.125C162.17 157.473 298.353 98.9622 424.933 0.810059Z" fill="#F3931F"/>
<path d="M142.813 307.745C259.41 270.919 343.086 202.517 411.749 111.669C388.049 253.723 269.089 344.115 142.813 307.745Z" fill="#F3931F"/>
</g>
<defs>
<clipPath id="clip0_945_1146">
<rect width="370" height="315" fill="white" transform="translate(0 0.810059)"/>
</clipPath>
</defs>
</svg>
